<?xml version="1.0" standalone="no"?>
<!DOCTYPE svg PUBLIC "-//W3C//DTD SVG 20010904//EN"
 "http://www.w3.org/TR/2001/REC-SVG-20010904/DTD/svg10.dtd">
<svg version="1.0" xmlns="http://www.w3.org/2000/svg"
 width="640.000000pt" height="640.000000pt" viewBox="0 0 640.000000 640.000000"
 preserveAspectRatio="xMidYMid meet">
<metadata>
Created by potrace 1.14, written by Peter Selinger 2001-2017
</metadata>
<g transform="translate(0.000000,640.000000) scale(0.100000,-0.100000)"
fill="#000000" stroke="none">
<path d="M3220 5631 c0 -5 8 -12 18 -14 9 -2 7 -3 -6 -2 -26 3 -88 -17 -104
-33 -6 -6 -16 -8 -22 -6 -7 3 -26 -2 -42 -11 -27 -14 -24 -15 71 -10 89 5 97
4 80 -9 -11 -9 -28 -16 -37 -16 -10 0 -42 -11 -72 -25 -31 -14 -76 -28 -101
-32 -25 -3 -48 -10 -51 -14 -3 -5 3 -6 12 -2 13 5 15 3 9 -7 -11 -18 73 -7
116 15 17 9 38 15 47 13 9 -2 -29 -20 -84 -41 -54 -21 -117 -46 -139 -55 -41
-19 -75 -19 -75 0 0 6 -14 -7 -31 -28 -16 -21 -44 -44 -60 -51 -33 -14 -32 -7
5 37 l21 24 -22 -14 c-12 -8 -40 -30 -62 -48 -23 -19 -41 -32 -41 -29 0 11 32
66 45 77 8 7 15 18 15 26 0 7 8 19 19 26 17 12 39 58 28 58 -3 0 -31 -38 -62
-85 -31 -47 -60 -85 -65 -85 -5 0 -7 -6 -4 -13 6 -16 -59 -90 -70 -80 -4 5 -7
4 -5 -2 3 -14 -17 -62 -30 -69 -5 -4 -12 3 -16 14 -6 20 -6 20 -45 0 -22 -11
-41 -20 -43 -20 -10 0 2 50 18 76 l17 29 -21 -25 c-12 -14 -25 -29 -30 -35 -4
-5 -18 -17 -30 -25 -12 -8 -19 -20 -16 -27 3 -9 -3 -12 -18 -9 -18 3 -22 -1
-24 -22 -1 -19 1 -22 9 -11 6 9 7 -2 3 -34 -6 -43 -4 -49 14 -54 16 -4 19 -9
11 -23 -12 -23 -13 -43 -2 -36 5 3 16 -8 26 -25 9 -16 23 -29 29 -30 7 0 24
-3 39 -5 14 -2 29 0 33 6 3 5 2 10 -3 10 -5 0 -10 12 -10 28 0 15 -2 47 -3 72
-2 42 27 130 42 130 3 0 -2 -25 -12 -57 -22 -65 -26 -128 -7 -117 8 5 9 2 5
-10 -4 -10 -2 -26 4 -37 9 -17 12 -18 24 -5 8 8 15 21 15 29 0 8 7 20 15 27
13 11 14 10 9 -4 -4 -10 -1 -16 10 -16 8 0 28 -16 43 -35 28 -36 88 -73 100
-62 3 4 0 13 -7 22 -10 12 -10 15 3 15 9 0 19 -5 23 -12 5 -8 10 -7 18 4 16
21 64 29 71 11 3 -8 3 -19 -1 -24 -3 -5 -1 -9 5 -9 5 0 17 -3 27 -7 11 -4 15
-3 11 4 -4 6 2 22 13 36 11 14 20 29 20 34 0 4 -5 1 -10 -7 -8 -13 -10 -12
-10 3 0 14 5 17 23 11 12 -3 24 -11 26 -16 1 -5 12 -1 23 8 19 18 19 17 14
-10 -6 -34 8 -66 29 -66 8 0 15 8 16 18 0 14 2 14 9 -3 7 -16 9 -14 9 15 1 27
4 31 11 20 6 -8 8 -28 5 -45 -4 -22 -3 -25 3 -10 7 16 10 17 18 5 13 -22 51
-41 68 -34 8 3 21 19 29 36 l15 31 16 -31 16 -32 26 23 c14 12 35 38 45 57 14
25 18 28 13 10 -4 -14 -8 -43 -9 -64 -2 -37 -2 -38 10 -16 12 22 12 22 17 2 8
-28 42 -19 57 15 7 14 14 23 17 20 3 -3 -2 -19 -10 -36 -21 -40 -20 -45 9 -61
13 -7 29 -25 34 -39 10 -26 10 -26 16 -3 8 24 20 29 29 10 5 -10 7 -10 12 -1
7 16 60 73 67 73 3 0 -1 -13 -9 -30 -9 -16 -19 -30 -24 -30 -4 0 -10 -9 -13
-20 -4 -16 -2 -18 13 -10 9 5 19 7 22 5 2 -3 21 -7 40 -9 26 -4 44 1 61 15 27
21 48 26 29 7 -18 -18 -15 -28 9 -28 11 0 29 -5 39 -10 12 -7 28 -7 44 0 17 6
26 6 26 0 0 -6 7 -10 15 -10 18 0 20 -20 3 -21 -7 0 1 -5 17 -10 19 -5 31 -5
33 1 6 16 22 12 40 -10 10 -10 28 -21 42 -24 67 -11 85 -30 80 -86 -2 -21 0
-23 15 -10 15 12 16 11 13 -21 -2 -19 -8 -33 -15 -32 -18 4 -38 -64 -23 -82 7
-8 8 -20 4 -27 -5 -7 -9 -17 -9 -23 0 -5 -15 -11 -32 -13 -37 -4 -39 -9 -19
-37 11 -16 11 -21 0 -32 -17 -17 -27 -16 -20 2 3 10 -1 15 -13 15 -14 0 -17
-6 -13 -31 3 -19 9 -28 17 -25 13 5 30 -22 20 -32 -3 -3 -5 1 -5 8 0 8 -8 3
-20 -10 -20 -23 -20 -23 -20 -2 0 15 -6 20 -20 19 -23 -1 -25 -8 -8 -25 10
-10 7 -16 -10 -28 -12 -8 -22 -20 -22 -26 0 -6 -7 -20 -17 -30 -15 -17 -15
-18 5 -18 11 0 23 -6 26 -12 3 -7 3 -1 0 14 -6 26 -4 27 30 26 20 -1 33 -4 28
-7 -6 -3 -12 -15 -15 -26 -4 -18 -5 -18 -6 3 -2 37 -19 24 -26 -20 -10 -62
-26 -76 -85 -73 -28 1 -50 -2 -50 -6 0 -8 24 -13 44 -10 23 4 66 -12 66 -25 0
-17 12 -18 29 -1 10 10 11 6 8 -18 -2 -16 -9 -29 -15 -28 -6 1 -7 -10 -2 -32
4 -20 4 -37 0 -40 -5 -3 -8 -19 -8 -36 l1 -31 17 22 17 22 -1 -23 c-1 -13 -5
-27 -10 -31 -15 -10 -14 -47 0 -59 9 -8 35 -5 91 9 84 22 109 16 78 -18 -14
-15 -15 -20 -4 -20 12 0 12 -2 0 -9 -8 -5 -11 -16 -6 -31 6 -19 5 -20 -12 -11
-15 7 -23 6 -34 -8 -23 -26 -32 -54 -15 -48 8 3 18 -4 25 -19 10 -22 8 -24
-15 -24 -14 0 -23 -4 -20 -8 2 -4 17 -7 33 -6 20 1 27 6 25 18 -2 9 4 16 12
16 10 0 13 -6 10 -15 -4 -8 -1 -15 5 -15 6 0 11 4 11 8 0 16 39 7 43 -10 3
-10 1 -16 -4 -12 -5 3 -9 0 -9 -5 0 -6 -7 -11 -16 -11 -8 0 -12 -4 -9 -10 4
-6 -6 -10 -22 -11 -44 -2 -67 2 -74 13 -4 6 -11 3 -17 -8 -6 -10 -14 -16 -18
-12 -4 4 -20 -2 -35 -13 -20 -14 -29 -16 -29 -7 0 9 -3 10 -8 2 -6 -9 -43 -12
-74 -6 -14 3 -8 32 5 32 8 0 20 11 27 25 7 14 17 25 22 25 14 0 8 -29 -8 -38
-9 -5 -13 -12 -8 -15 16 -9 44 19 46 46 1 15 8 29 16 32 7 3 11 9 7 14 -3 5 3
12 13 15 10 4 19 13 19 21 0 18 -9 19 -25 3 -6 -6 -15 -9 -18 -5 -8 8 21 37
36 37 7 0 9 7 6 16 -3 9 -6 22 -6 30 0 20 -19 17 -27 -3 -4 -10 -17 -29 -30
-43 -13 -14 -23 -31 -23 -38 0 -7 -7 -15 -15 -18 -8 -4 -15 -14 -15 -24 0 -26
-16 -34 -25 -12 -6 15 -9 13 -21 -10 -17 -32 -26 -36 -23 -10 3 30 -1 35 -16
22 -9 -8 -13 -21 -9 -36 5 -18 2 -24 -11 -24 -9 0 -14 -4 -10 -9 3 -5 -5 -17
-17 -25 -12 -9 -32 -31 -43 -49 -20 -31 -59 -49 -48 -21 6 17 -9 18 -25 2 -9
-9 -12 -9 -12 0 0 7 -3 11 -7 11 -20 -3 -34 2 -28 11 3 5 -3 20 -14 32 -12 12
-20 27 -19 34 3 13 -4 14 -33 7 -23 -6 -39 -46 -39 -93 0 -22 -5 -40 -11 -40
-6 0 -8 -9 -4 -20 4 -11 2 -20 -4 -20 -6 0 -8 -7 -5 -15 4 -8 1 -22 -6 -30
-15 -18 -7 -130 11 -151 6 -8 9 -23 6 -34 -3 -11 -1 -20 5 -20 6 0 8 -9 5 -20
-3 -11 -1 -23 4 -26 5 -3 8 -34 5 -69 -3 -35 -1 -65 4 -67 6 -2 3 -26 -4 -55
-8 -29 -10 -55 -6 -58 5 -3 7 -12 4 -19 -3 -8 0 -17 7 -22 9 -5 7 -10 -7 -15
-18 -7 -18 -8 3 -15 13 -3 21 -9 19 -13 -3 -3 4 -24 14 -46 22 -47 25 -76 8
-93 -9 -9 -9 -12 1 -12 9 0 11 -7 6 -23 -4 -12 -8 -37 -11 -55 -2 -18 -12 -44
-23 -59 -17 -21 -22 -23 -27 -9 -3 9 -10 16 -15 16 -4 0 -6 -7 -2 -16 4 -12 1
-15 -13 -12 -22 5 -54 -27 -54 -54 0 -12 -4 -16 -12 -12 -7 5 -8 3 -3 -5 5 -8
-6 -24 -29 -43 -22 -18 -35 -36 -32 -45 3 -7 -1 -16 -8 -19 -8 -3 -17 -15 -20
-27 -5 -18 -8 -20 -16 -7 -8 13 -10 13 -10 -1 0 -9 -7 -20 -16 -23 -20 -8 -24
-8 -23 1 3 20 -2 24 -16 13 -12 -10 -15 -10 -15 2 0 8 6 20 13 28 10 12 9 12
-5 1 -9 -7 -22 -10 -27 -7 -5 4 -12 2 -16 -4 -4 -6 -11 -8 -16 -5 -5 4 -9 1
-9 -5 0 -7 8 -9 21 -5 15 5 19 4 14 -5 -4 -7 -17 -9 -31 -6 -17 5 -26 2 -30
-9 -4 -8 -10 -15 -15 -15 -5 0 0 16 11 35 20 36 13 47 -14 20 -18 -19 -33 -20
-17 -2 8 10 7 17 -1 25 -17 17 -35 15 -42 -5 -6 -15 -8 -15 -16 -3 -8 13 -11
12 -23 -4 -9 -13 -19 -16 -28 -11 -12 8 -12 6 0 -8 11 -15 11 -17 -2 -17 -20
0 -33 -50 -15 -61 11 -8 5 -13 -13 -11 -3 1 -12 -10 -19 -23 -7 -14 -17 -25
-22 -25 -10 0 -10 3 2 34 7 20 6 27 -8 35 -14 9 -14 11 -2 12 8 1 22 1 30 0
11 -1 10 1 -3 10 -14 8 -16 14 -6 25 6 8 9 17 6 20 -8 8 -37 -21 -37 -35 0
-16 -20 -13 -26 4 -9 21 -19 19 -21 -5 -1 -12 4 -20 13 -20 14 0 14 -2 0 -15
-8 -8 -21 -15 -28 -15 -7 0 -19 -9 -26 -20 -12 -20 -32 -27 -32 -12 0 5 9 18
20 30 11 12 20 26 20 32 0 5 4 10 10 10 5 0 7 7 3 15 -4 12 -14 6 -41 -26 -33
-38 -36 -40 -49 -23 -15 21 -17 48 -3 39 6 -3 13 2 17 12 4 10 11 21 17 25 6
4 7 10 3 15 -5 4 -12 1 -17 -6 -4 -8 -14 -12 -21 -9 -8 3 -23 2 -34 -3 l-20
-8 20 0 c15 -1 16 -4 7 -10 -7 -4 -14 -15 -16 -23 -3 -26 -28 -51 -37 -37 -4
8 -11 4 -20 -12 -11 -21 -11 -23 3 -11 12 9 18 10 23 2 5 -8 13 -6 26 6 11 9
22 14 26 11 8 -8 8 -7 -39 -35 -21 -12 -38 -16 -38 -11 0 6 -7 9 -15 5 -21 -8
-19 6 6 49 16 27 18 34 6 29 -9 -3 -18 -12 -21 -20 -3 -8 -11 -14 -17 -14 -7
0 -2 11 11 25 25 26 17 33 -12 11 -10 -7 -18 -22 -18 -34 0 -11 -7 -23 -16
-26 -22 -9 -23 -8 -17 17 4 19 3 20 -7 4 -6 -9 -20 -17 -31 -17 -11 0 -17 4
-14 10 3 5 0 7 -9 4 -19 -7 -29 -35 -17 -47 5 -5 15 -6 23 -1 20 13 48 15 48
4 0 -6 -11 -10 -24 -10 -13 0 -26 -6 -29 -14 -3 -8 -16 -20 -29 -27 -19 -9
-21 -9 -10 2 14 16 16 39 2 39 -5 0 -10 -5 -10 -11 0 -6 -10 -25 -22 -41 l-21
-30 22 11 c21 11 21 11 9 -8 -7 -12 -16 -21 -20 -21 -4 0 -12 -9 -19 -21 -10
-19 -9 -20 11 -14 21 7 21 5 -6 -29 -16 -20 -34 -36 -41 -36 -6 0 -21 -12 -32
-27 l-21 -28 15 37 c18 44 18 48 5 48 -5 0 -10 -10 -10 -23 0 -22 -32 -51 -58
-52 -7 0 -17 -7 -22 -15 -7 -11 -10 -11 -10 -2 0 7 7 24 16 37 9 14 12 25 8
25 -5 0 -18 -14 -29 -30 -23 -34 -50 -41 -40 -10 4 11 0 29 -9 41 -8 12 -12
29 -9 38 5 13 2 12 -16 -4 -22 -19 -22 -20 -4 -35 13 -11 17 -26 15 -53 -2
-20 -7 -35 -12 -32 -4 3 -13 -9 -19 -25 -13 -38 -34 -40 -25 -2 7 25 6 26 -10
13 -12 -10 -16 -24 -13 -48 3 -18 1 -33 -4 -33 -5 0 -9 -11 -9 -25 0 -18 5
-25 19 -25 11 0 23 5 26 10 4 6 1 9 -6 8 -6 -2 -14 3 -16 10 -3 6 2 12 11 12
9 0 16 8 16 18 0 14 2 15 10 2 5 -8 5 -17 1 -20 -10 -7 -8 -51 3 -68 4 -7 5
-16 2 -19 -3 -4 -6 -1 -6 5 0 6 -9 16 -21 23 -19 10 -20 8 -14 -10 5 -15 2
-21 -9 -21 -9 0 -16 8 -16 17 0 9 -7 24 -15 33 -8 9 -17 38 -20 65 -7 62 -23
115 -42 136 -7 9 -11 24 -7 33 10 27 -10 18 -24 -12 -22 -45 -25 -58 -7 -37
13 17 17 18 25 5 5 -9 5 -17 -1 -20 -14 -9 -29 -115 -28 -195 l2 -70 8 90 c4
50 12 101 17 115 9 23 10 22 16 -17 4 -23 5 -51 1 -62 -4 -14 -1 -19 11 -17
21 1 29 -24 49 -159 20 -131 56 -287 68 -300 6 -6 8 -1 4 15 -3 14 -15 68 -26
120 -23 106 -29 220 -9 185 6 -11 23 -38 37 -60 47 -75 104 -276 83 -297 -16
-16 -32 0 -32 31 0 15 -3 31 -7 35 -8 7 -8 11 -18 118 -6 58 -13 82 -28 95
-19 17 -19 17 -14 -2 20 -65 64 -321 57 -329 -14 -14 -30 4 -30 35 0 16 -5 29
-10 29 -6 0 -8 -11 -5 -25 3 -14 7 -36 10 -49 4 -22 -19 -56 -30 -44 -3 2 -9
33 -14 69 -6 35 -24 127 -40 204 -16 77 -33 179 -37 227 -4 48 -11 85 -15 82
-13 -8 0 -115 38 -299 20 -93 39 -196 44 -228 5 -33 11 -63 14 -67 7 -11 -5
-40 -15 -40 -5 0 -11 14 -15 31 -4 17 -9 28 -11 26 -3 -2 0 -24 5 -47 5 -23 6
-52 1 -64 -8 -20 -8 -20 -14 4 -3 14 -7 34 -10 45 -2 11 -4 0 -3 -25 1 -46 -7
-70 -23 -70 -5 0 -11 15 -13 33 -2 17 -2 2 -1 -35 3 -59 0 -69 -17 -78 -10 -6
-19 -17 -19 -25 0 -9 -9 -23 -20 -32 -11 -10 -20 -23 -20 -30 0 -13 -39 -39
-52 -35 -5 1 -8 -5 -8 -13 0 -9 6 -12 18 -9 14 5 14 3 -2 -10 -11 -9 -23 -16
-28 -16 -4 0 -7 -6 -5 -12 1 -7 -13 -20 -30 -28 -18 -8 -33 -21 -33 -29 0 -11
3 -11 15 -1 9 7 15 8 15 2 0 -5 -11 -17 -25 -26 -27 -18 -30 -16 -38 34 -2 14
-5 4 -6 -22 -1 -41 1 -47 17 -41 11 4 14 3 7 -4 -5 -6 -20 -14 -32 -17 -19 -6
-22 -3 -26 26 -3 29 -4 28 -5 -9 -2 -35 1 -43 16 -43 14 0 12 -4 -8 -20 -18
-13 -28 -16 -37 -8 -10 8 -13 6 -13 -6 0 -9 8 -16 17 -16 21 0 6 -15 -24 -24
-19 -6 -22 -3 -26 31 l-4 38 -1 -42 c-1 -25 3 -43 9 -43 5 0 7 -4 4 -10 -3 -5
-18 -10 -32 -10 -23 0 -25 3 -19 30 3 17 1 30 -4 30 -9 0 -15 -18 -22 -65 -2
-11 -10 -20 -18 -20 -10 0 -14 8 -11 25 11 78 -11 486 -29 547 -11 38 -12 14
-1 -87 22 -198 28 -389 16 -467 -6 -38 -5 -42 17 -45 30 -4 35 -42 13 -108
-33 -98 -45 -56 -19 62 5 22 3 28 -11 28 -13 0 -16 -6 -12 -22 5 -18 -25 -88
-38 -88 -2 0 -1 18 2 40 4 31 2 40 -9 40 -8 0 -20 -10 -27 -22 -11 -22 -11
-21 -6 7 11 63 17 233 9 248 -6 10 -9 -16 -9 -71 0 -68 -5 -97 -21 -132 -19
-40 -35 -92 -51 -168 -3 -12 -1 -22 6 -22 6 0 11 7 11 16 0 18 31 74 41 74 8
0 6 -34 -5 -67 -10 -31 8 -29 33 3 l21 27 0 -25 c0 -23 4 -25 40 -25 38 0 40
2 52 41 7 22 12 76 13 118 0 42 4 80 7 84 12 11 36 -15 43 -46 3 -16 13 -34
20 -40 8 -7 17 -27 21 -46 9 -51 22 -41 30 23 6 47 9 53 15 33 l7 -25 1 28 c1
32 17 67 31 67 5 0 7 -47 5 -107 l-4 -108 15 110 c9 71 20 115 30 125 15 14
16 5 10 -100 -4 -63 -10 -125 -13 -137 -3 -13 -1 -23 5 -23 5 0 12 21 16 48 3
26 11 76 18 112 10 61 12 63 20 35 5 -16 6 -67 3 -112 -7 -91 7 -115 23 -40
l9 42 8 -43 8 -42 76 0 76 0 -5 97 c-3 54 -2 112 2 128 5 17 6 47 2 68 -7 46
13 51 21 5 3 -18 7 -90 9 -160 1 -70 6 -131 9 -135 7 -6 10 126 7 272 -1 55 1
67 11 58 18 -18 28 -94 28 -220 1 -68 5 -113 11 -113 13 0 16 250 3 295 -4 15
-2 17 6 9 9 -8 20 -147 21 -281 0 -13 6 -23 13 -23 10 0 13 13 9 54 -3 33 0
56 7 60 8 5 11 -10 11 -48 0 -46 12 -78 25 -65 2 3 -21 273 -24 287 -1 1 -8 2
-16 2 -11 0 -14 10 -12 38 2 26 -3 44 -16 57 -18 20 -18 20 -11 0 7 -18 6 -18
-9 -6 -9 7 -17 18 -17 24 0 5 -7 15 -15 21 -18 13 -41 129 -27 134 5 1 8 12 5
22 -4 13 0 20 9 20 11 0 14 8 10 26 -4 21 -2 25 9 19 8 -5 20 -17 27 -27 7
-10 18 -18 24 -18 5 0 -4 16 -21 35 -33 38 -40 65 -16 65 8 0 15 -4 15 -8 0
-12 41 -54 47 -48 3 3 -6 19 -21 36 -26 31 -35 70 -17 70 6 0 18 -13 28 -30 9
-16 21 -30 25 -30 4 0 -6 19 -22 43 -21 29 -28 49 -24 65 4 12 10 22 15 22 5
0 9 8 9 18 0 12 10 6 36 -23 38 -43 36 -31 -4 23 -20 26 -22 35 -12 47 10 12
15 10 36 -14 13 -16 24 -33 24 -38 0 -6 10 -18 22 -29 24 -21 20 -11 -24 53
-30 45 -37 83 -14 83 8 0 18 -9 21 -21 7 -20 23 -44 53 -74 14 -16 16 -55 2
-55 -5 0 -10 -7 -10 -15 0 -8 6 -15 14 -15 15 0 11 -34 -6 -57 -5 -7 -5 -14 2
-18 14 -9 13 -55 -2 -55 -6 0 -8 -3 -4 -8 4 -4 12 -7 18 -7 14 0 18 -66 5 -82
-5 -7 -6 -20 -3 -30 5 -11 -6 -30 -34 -58 -35 -35 -42 -50 -44 -86 -1 -24 2
-53 8 -64 5 -11 13 -42 18 -70 14 -98 37 -218 43 -223 3 -3 7 -3 9 -1 4 5 -17
128 -40 224 -8 39 -18 94 -21 123 -4 47 -2 56 21 79 17 17 26 21 26 12 0 -8
-9 -22 -20 -32 -28 -23 -26 -59 5 -73 20 -10 27 -8 42 8 16 18 27 20 106 15
72 -4 98 -10 144 -34 31 -16 62 -38 67 -49 6 -10 26 -36 44 -57 32 -37 93
-152 105 -197 5 -20 11 -20 306 -20 259 0 302 2 307 15 4 8 10 15 15 15 5 0 9
-7 9 -15 0 -33 27 -12 38 30 16 61 37 60 27 -1 -8 -59 16 -57 27 2 14 71 29
114 40 114 10 0 7 -55 -9 -131 -3 -17 -1 -29 5 -29 6 0 16 26 22 58 19 99 20
103 31 96 10 -6 6 -92 -7 -136 -3 -11 0 -18 9 -18 16 0 27 41 27 106 0 24 4
44 9 44 17 0 21 -35 11 -90 -6 -29 -8 -56 -5 -58 14 -14 29 24 35 85 6 66 6
67 14 30 6 -25 4 -48 -3 -63 -24 -53 -21 -54 113 -54 90 0 126 3 129 13 4 9 8
8 16 -3 15 -21 19 -12 24 60 3 36 6 67 6 70 4 20 22 -36 27 -82 10 -87 24 -70
24 29 0 63 3 84 11 76 6 -6 11 -45 11 -87 0 -42 3 -76 8 -76 14 0 20 31 22
113 0 47 5 74 11 70 6 -3 7 -40 3 -94 -7 -95 6 -122 22 -46 l10 42 1 -42 c2
-66 18 -51 27 25 l8 67 9 -68 c5 -37 13 -67 18 -67 4 0 10 39 11 88 l3 87 13
-60 c7 -33 15 -72 18 -87 3 -16 10 -28 15 -28 6 0 7 14 4 32 -9 49 -12 139 -3
130 3 -4 16 -40 27 -81 34 -122 37 -106 15 77 -2 17 1 32 6 32 6 0 10 -9 10
-19 0 -11 4 -22 9 -25 5 -4 15 -38 22 -76 7 -39 16 -70 21 -70 10 0 11 -9 -7
83 -17 91 -19 137 -5 137 6 0 10 -11 10 -24 0 -14 4 -27 9 -30 4 -3 14 -39 21
-81 7 -42 17 -78 21 -81 12 -7 11 0 -5 92 -16 94 -19 134 -8 134 9 0 39 -99
47 -161 7 -45 20 -78 28 -69 3 3 1 28 -4 55 -10 55 -21 202 -13 170 3 -11 8
-27 11 -35 4 -8 14 -53 22 -99 10 -51 21 -86 30 -89 9 -3 11 1 7 16 -14 42
-23 122 -15 122 5 0 9 -8 9 -19 0 -35 33 -121 46 -121 11 0 11 7 -1 39 -15 42
-31 139 -22 131 3 -3 19 -41 35 -85 18 -51 35 -81 45 -83 14 -3 12 6 -9 53
-29 63 -45 148 -24 128 7 -6 27 -48 46 -93 36 -89 41 -97 51 -87 3 4 -9 39
-26 77 -18 39 -35 90 -38 113 -5 40 -4 41 11 22 20 -25 76 -168 76 -193 0 -14
7 -19 25 -19 21 0 25 4 25 28 0 45 -21 130 -46 184 -12 28 -26 64 -29 80 -7
30 -7 30 12 10 27 -27 51 -96 63 -184 15 -109 18 -116 45 -117 16 -1 22 3 18
11 -2 8 -10 12 -17 9 -10 -4 -16 19 -25 83 -6 48 -22 121 -35 162 -20 62 -31
81 -72 117 -47 42 -59 65 -48 94 4 13 6 13 14 0 5 -8 7 -23 4 -32 -4 -12 0
-18 11 -18 9 0 19 -9 22 -21 4 -14 8 -17 13 -9 11 17 30 3 30 -21 0 -10 5 -19
10 -19 6 0 10 7 10 16 0 14 3 14 15 4 8 -7 15 -18 15 -25 0 -8 4 -15 9 -17 5
-2 12 -23 16 -47 5 -31 4 -42 -4 -37 -6 4 -11 20 -11 35 0 15 -8 35 -18 44
-27 25 -32 21 -16 -11 8 -16 23 -76 35 -133 22 -110 45 -170 34 -89 -3 25 -8
65 -11 90 l-5 45 19 -53 c20 -55 29 -69 37 -60 3 3 -1 20 -9 39 -8 19 -17 57
-21 84 -8 57 -30 110 -56 140 -18 21 -63 144 -55 152 2 3 7 -6 11 -19 14 -48
51 -114 73 -131 12 -10 22 -27 22 -38 0 -10 5 -19 10 -19 19 0 10 37 -15 60
-24 23 -48 83 -59 150 -4 22 7 4 30 -50 20 -47 47 -98 60 -113 13 -16 24 -38
24 -50 0 -11 10 -41 22 -66 12 -25 23 -53 24 -61 2 -8 10 -39 18 -69 10 -33
13 -70 10 -93 -8 -47 11 -52 20 -6 7 40 2 74 -25 155 -19 58 -19 83 0 83 4 0
15 -24 25 -54 14 -42 18 -73 14 -135 -4 -73 2 -101 15 -68 4 9 6 9 6 0 1 -7 7
-13 15 -13 29 0 38 195 12 266 -8 23 -26 66 -41 97 -15 32 -32 95 -40 149 -8
51 -19 113 -24 138 -6 25 -13 59 -16 75 -5 30 -5 30 11 -4 8 -19 22 -72 29
-118 16 -96 40 -177 65 -213 42 -60 53 -127 46 -262 -7 -137 7 -178 18 -55 16
167 10 207 -44 322 -29 61 -45 114 -64 220 -14 77 -29 153 -32 169 -5 19 -3
27 3 23 12 -8 38 -110 53 -210 6 -37 21 -89 35 -115 77 -149 72 -118 75 -444
0 -21 4 -38 9 -38 6 0 10 65 10 153 1 165 -10 226 -52 288 -34 51 -45 88 -72
244 -13 77 -27 151 -30 165 l-6 25 15 -25 c8 -14 21 -61 30 -105 9 -44 21
-106 27 -137 7 -33 27 -81 46 -110 54 -84 66 -135 68 -293 3 -142 10 -205 24
-205 5 0 4 23 0 51 -5 28 -6 90 -3 137 4 60 0 108 -12 161 -16 74 -54 163 -74
176 -15 9 -37 98 -55 219 -9 59 -27 136 -41 170 -38 92 -39 93 -17 66 45 -56
83 -172 83 -256 0 -45 38 -164 55 -170 18 -7 54 -93 71 -173 7 -36 14 -111 15
-166 1 -108 17 -206 35 -212 8 -3 7 17 -2 64 -7 37 -14 100 -14 138 -1 155
-44 326 -90 365 -23 19 -45 100 -59 212 -6 47 -18 102 -26 122 -13 31 -13 36
-1 36 22 0 43 -67 51 -160 7 -83 38 -180 57 -180 17 0 57 -109 72 -197 8 -48
17 -128 21 -177 7 -92 30 -204 46 -221 13 -13 11 8 -5 74 -8 31 -20 112 -26
181 -18 203 -55 336 -99 360 -23 12 -40 70 -47 166 -4 44 -13 94 -20 113 -17
40 -17 41 -3 41 16 0 39 -65 39 -114 0 -78 20 -147 50 -175 43 -40 59 -91 86
-271 13 -91 33 -203 44 -250 12 -47 23 -95 26 -107 2 -13 8 -23 13 -23 7 0
-16 133 -33 186 -3 10 -15 82 -26 159 -11 77 -25 163 -31 190 -16 67 -48 135
-65 135 -23 0 -36 39 -44 137 -5 57 -14 103 -24 118 -18 27 -6 34 17 10 9 -9
18 -45 22 -92 7 -76 33 -160 42 -136 2 7 0 20 -5 30 -6 10 -14 56 -18 102 -5
63 -12 89 -26 103 -25 25 -15 37 11 14 13 -12 21 -38 26 -79 8 -65 34 -141 42
-120 2 7 0 20 -6 30 -5 11 -13 47 -17 81 -4 39 -14 72 -26 88 -25 32 -17 43
11 15 12 -12 21 -34 21 -49 0 -37 29 -122 42 -122 5 0 7 6 4 13 -5 13 -21 67
-37 128 -5 22 -17 43 -25 46 -8 3 -14 9 -14 14 0 6 8 5 20 -1 12 -6 27 -36 40
-80 11 -38 25 -72 30 -75 14 -9 12 1 -14 76 -12 36 -32 78 -44 93 -20 26 -28
28 -100 30 -43 2 -84 6 -90 10 -7 4 -12 5 -12 2 0 -3 -27 22 -60 54 -34 33
-65 60 -70 60 -5 0 -16 16 -24 35 -18 41 -48 56 -126 61 -225 14 -247 23 -348
130 -161 169 -179 195 -163 236 5 13 7 50 6 83 -1 33 2 66 7 72 6 7 8 19 5 28
-4 8 0 21 8 29 8 7 17 25 21 40 3 14 10 26 15 26 5 0 9 9 9 20 0 10 6 39 14
62 8 24 17 65 21 92 3 27 10 56 15 65 4 9 13 39 18 66 5 28 19 84 30 125 11
41 23 104 26 140 4 36 20 117 35 180 16 63 36 147 45 185 9 39 25 104 36 145
27 98 45 297 65 710 1 30 11 82 21 115 10 33 19 69 20 80 2 27 40 223 59 305
24 101 20 161 -14 228 -16 32 -33 75 -36 95 -4 21 -16 48 -26 61 -26 32 -24
46 5 46 40 0 43 34 7 88 -52 79 -95 178 -111 255 -12 60 -52 141 -82 168 -10
9 -18 20 -18 24 0 12 -42 45 -57 45 -7 0 -13 6 -13 13 0 6 -17 23 -36 37 -20
14 -61 49 -91 78 -30 28 -64 52 -74 52 -10 0 -19 7 -19 15 0 9 -6 15 -12 14
-15 -3 -44 9 -76 29 -16 11 -20 17 -11 23 8 4 -7 18 -42 38 -30 17 -58 31 -63
31 -5 0 -18 7 -27 16 -13 11 -35 16 -70 15 -37 0 -55 4 -64 15 -8 12 -34 17
-101 20 -49 2 -109 9 -134 15 -31 8 -64 8 -108 2 -52 -8 -62 -7 -58 4 4 9 -4
13 -24 13 -17 0 -30 -4 -30 -9z m120 -43 c-19 -5 -39 -14 -44 -19 -6 -5 -15
-4 -23 2 -9 8 -13 8 -13 0 0 -6 -4 -11 -10 -11 -5 0 -10 7 -10 16 0 13 7 15
28 11 15 -2 36 -1 47 3 11 5 29 9 40 8 11 0 4 -4 -15 -10z m-35 -108 c-16 -5
-63 -18 -104 -29 -40 -12 -76 -19 -79 -17 -3 3 1 7 9 10 115 34 158 45 179 44
23 0 22 -1 -5 -8z m-229 -68 c-3 -5 -38 -21 -78 -37 -40 -15 -84 -36 -97 -47
-26 -20 -46 -24 -35 -7 9 15 144 79 166 79 9 0 20 5 23 10 3 6 11 10 16 10 6
0 8 -4 5 -8z m-211 -62 c-3 -5 -10 -10 -16 -10 -5 0 -9 5 -9 10 0 6 7 10 16
10 8 0 12 -4 9 -10z m-31 -55 c-7 -16 -24 -21 -24 -6 0 8 7 13 27 20 1 1 0 -6
-3 -14z m216 0 c-7 -9 -15 -13 -17 -11 -7 7 7 26 19 26 6 0 6 -6 -2 -15z m-85
-51 c-98 -89 -110 -101 -127 -122 -10 -12 -23 -22 -30 -22 -8 1 -6 6 5 14 9 7
17 18 17 24 0 5 17 25 38 43 20 18 37 36 37 40 0 13 18 27 60 48 56 28 56 27
0 -25z m105 -3 c0 -5 -7 -12 -16 -15 -14 -5 -15 -4 -4 9 14 17 20 19 20 6z
m-500 -102 c-24 -33 -27 -35 -27 -14 0 8 4 15 8 15 3 0 9 9 12 21 3 12 10 18
17 14 7 -4 3 -16 -10 -36z m326 -1 c-9 -13 -22 -38 -30 -55 -13 -28 -36 -46
-36 -27 0 9 71 104 77 104 3 0 -2 -10 -11 -22z m-446 -43 c-7 -8 -17 -15 -22
-15 -6 0 -5 7 2 15 7 8 17 15 22 15 6 0 5 -7 -2 -15z m90 -10 c0 -8 -4 -15
-10 -15 -5 0 -7 7 -4 15 4 8 8 15 10 15 2 0 4 -7 4 -15z m120 -15 c0 -5 -4
-10 -10 -10 -5 0 -10 5 -10 10 0 6 5 10 10 10 6 0 10 -4 10 -10z m-293 -37
c-3 -10 -5 -4 -5 12 0 17 2 24 5 18 2 -7 2 -21 0 -30z m678 -20 c-13 -26 -21
-51 -19 -55 3 -5 0 -7 -8 -6 -8 2 -13 -6 -13 -19 0 -13 -5 -23 -10 -22 -17 0
-4 42 28 96 40 65 55 69 22 6z m41 21 c-4 -9 -9 -15 -11 -12 -3 3 -3 13 1 22
4 9 9 15 11 12 3 -3 3 -13 -1 -22z m-435 -8 c5 3 9 -1 9 -9 0 -10 -7 -13 -19
-10 -13 3 -18 10 -13 21 4 10 7 12 10 4 2 -7 8 -10 13 -6z m192 -16 c-16 -28
-33 -39 -33 -23 0 7 41 53 47 53 2 0 -4 -13 -14 -30z m284 0 c-6 -16 -15 -30
-19 -30 -5 0 -2 14 7 30 9 17 17 30 19 30 3 0 -1 -13 -7 -30z m-550 -22 c-3
-7 -5 -2 -5 12 0 14 2 19 5 13 2 -7 2 -19 0 -25z m68 -8 c3 -5 1 -10 -4 -10
-6 0 -11 5 -11 10 0 6 2 10 4 10 3 0 8 -4 11 -10z m545 -10 c0 -5 -5 -10 -11
-10 -5 0 -7 5 -4 10 3 6 8 10 11 10 2 0 4 -4 4 -10z m-349 -83 c-8 -8 -11 -3
-11 19 1 25 2 27 11 11 8 -14 8 -22 0 -30z m238 -61 c-5 -6 -9 7 -8 35 l1 44
8 -35 c5 -20 5 -39 -1 -44z m51 39 c0 -8 -4 -15 -10 -15 -5 0 -7 7 -4 15 4 8
8 15 10 15 2 0 4 -7 4 -15z m91 -12 c-8 -15 -10 -15 -11 -2 0 17 10 32 18 25
2 -3 -1 -13 -7 -23z m784 -1102 c3 -5 1 -12 -5 -16 -5 -3 -10 1 -10 9 0 18 6
21 15 7z m15 -35 c0 -3 -4 -8 -10 -11 -5 -3 -10 -1 -10 4 0 6 5 11 10 11 6 0
10 -2 10 -4z m64 -41 c-4 -8 -11 -15 -16 -15 -6 0 -5 6 2 15 7 8 14 15 16 15
2 0 1 -7 -2 -15z m-174 -285 c0 -5 -2 -10 -4 -10 -3 0 -8 5 -11 10 -3 6 -1 10
4 10 6 0 11 -4 11 -10z m-220 -4 c0 -3 -4 -8 -10 -11 -5 -3 -10 -1 -10 4 0 6
5 11 10 11 6 0 10 -2 10 -4z m134 -373 c8 -8 13 -9 65 -11 30 -2 32 -4 20 -18
-8 -10 -15 -12 -17 -5 -5 16 -22 13 -22 -4 0 -18 -4 -19 -30 -3 -16 10 -24 10
-41 0 -15 -10 -24 -11 -32 -3 -8 8 -6 11 7 11 15 0 16 3 7 14 -10 11 -8 15 6
19 29 7 29 7 37 0z m151 -23 c-3 -5 -10 -10 -16 -10 -5 0 -9 5 -9 10 0 6 7 10
16 10 8 0 12 -4 9 -10z m-190 -110 c3 -5 2 -10 -4 -10 -5 0 -13 5 -16 10 -3 6
-2 10 4 10 5 0 13 -4 16 -10z m-10 -40 c3 -5 1 -10 -4 -10 -6 0 -11 5 -11 10
0 6 2 10 4 10 3 0 8 -4 11 -10z m81 -17 c-7 -7 -26 7 -26 19 0 6 6 6 15 -2 9
-7 13 -15 11 -17z m-19 -28 c0 -8 -4 -12 -9 -9 -5 3 -6 10 -3 15 9 13 12 11
12 -6z m256 -66 c3 -10 11 -19 17 -19 10 0 10 3 0 15 -10 12 -10 15 4 15 25 0
21 -51 -5 -57 -11 -3 -18 -11 -15 -18 2 -7 -1 -18 -7 -24 -8 -8 -8 -11 2 -11
9 0 8 -5 -3 -21 -8 -12 -12 -32 -10 -45 3 -15 -3 -32 -16 -46 -11 -12 -18 -29
-15 -36 3 -8 -4 -29 -15 -47 -11 -17 -17 -36 -13 -41 4 -5 -1 -1 -12 10 -14
13 -16 20 -7 23 23 9 12 25 -12 19 -27 -7 -51 11 -62 47 -4 12 -11 25 -16 28
-5 3 -11 12 -12 20 -2 8 -6 21 -9 29 -12 27 -37 115 -37 129 0 9 8 11 25 7 16
-4 25 -2 25 5 0 8 4 8 14 0 9 -8 16 -9 21 -2 3 6 28 13 56 17 27 4 51 10 53
13 10 15 44 8 49 -10z m-186 5 c-3 -3 -12 -4 -19 -1 -8 3 -5 6 6 6 11 1 17 -2
13 -5z m-975 -694 c-9 -8 -30 -28 -45 -45 -19 -21 -27 -25 -27 -14 0 9 16 27
35 40 26 18 33 29 29 43 -6 17 -4 17 9 5 15 -13 15 -15 -1 -29z m13 -30 c-3
-5 -11 -10 -16 -10 -6 0 -7 5 -4 10 3 6 11 10 16 10 6 0 7 -4 4 -10z m298 -20
c6 -24 -8 -36 -17 -14 -8 22 -7 34 3 34 5 0 11 -9 14 -20z m-253 -5 c0 -8 -4
-15 -10 -15 -5 0 -7 7 -4 15 4 8 8 15 10 15 2 0 4 -7 4 -15z m-280 -15 c0 -5
-2 -10 -4 -10 -3 0 -8 5 -11 10 -3 6 -1 10 4 10 6 0 11 -4 11 -10z m70 -30 c0
-18 -3 -19 -22 -9 -22 12 -22 12 -3 20 11 4 21 8 23 8 1 1 2 -8 2 -19z m-50 0
c0 -5 -2 -10 -4 -10 -3 0 -8 5 -11 10 -3 6 -1 10 4 10 6 0 11 -4 11 -10z m365
-13 c11 -2 19 -8 18 -14 -2 -8 6 -9 30 -1 17 5 39 11 47 14 8 2 24 -3 34 -11
16 -12 17 -17 6 -30 -7 -8 -19 -15 -26 -15 -8 0 -14 -4 -14 -10 0 -5 -9 -10
-21 -10 -11 0 -30 -5 -41 -11 -15 -8 -19 -8 -14 0 4 7 -1 11 -13 11 -11 0 -23
5 -26 11 -4 6 -14 8 -22 5 -8 -3 -22 -2 -31 3 -9 5 -28 11 -42 12 -14 2 -30
11 -37 19 -9 11 -12 12 -13 2 0 -8 -5 -10 -12 -5 -7 4 -24 9 -38 11 -35 5 -37
10 -5 18 18 4 30 2 37 -7 7 -11 11 -11 15 -1 2 6 15 12 28 12 13 0 26 4 29 9
3 5 24 4 48 -1 24 -5 52 -10 63 -11z m-365 -18 c30 -5 63 -10 73 -10 9 0 17
-3 17 -7 0 -4 12 -8 26 -9 15 0 30 -7 35 -15 5 -7 9 -9 9 -4 0 5 7 3 15 -4 8
-6 19 -9 24 -5 15 9 58 -23 65 -48 6 -21 7 -21 21 -3 14 18 15 18 42 1 16 -11
28 -14 30 -8 3 7 16 7 43 1 28 -7 40 -16 44 -34 4 -13 13 -24 21 -24 9 0 12
-6 8 -17 -4 -11 -8 -12 -11 -5 -5 15 -72 16 -72 1 0 -8 -12 -10 -36 -6 -36 6
-36 6 -18 -15 19 -21 19 -21 -3 -16 -13 4 -23 2 -23 -2 0 -4 -8 -6 -17 -4 -15
4 -18 -3 -21 -41 -1 -25 2 -45 7 -45 5 0 12 -11 15 -25 4 -14 10 -25 15 -25 5
0 7 -8 4 -19 -3 -10 1 -22 8 -27 9 -5 11 -2 6 9 -3 10 -2 17 4 17 5 0 9 19 7
45 -2 25 -6 45 -10 45 -5 0 -8 -4 -8 -10 0 -5 -6 -10 -14 -10 -8 0 -13 10 -13
24 0 16 4 23 12 19 7 -2 16 5 20 16 3 12 13 21 20 21 8 0 12 -6 9 -14 -3 -7 2
-16 10 -19 9 -4 16 -15 16 -25 0 -11 11 -31 26 -47 14 -15 23 -29 21 -31 -2
-2 -14 7 -27 21 -26 28 -42 33 -34 11 3 -8 1 -23 -5 -34 -8 -16 -6 -21 14 -30
15 -7 27 -8 30 -2 3 5 19 -4 35 -21 37 -36 38 -45 5 -23 -14 9 -34 14 -45 11
-14 -3 -24 1 -31 15 -6 11 -13 17 -16 14 -3 -3 0 -12 6 -20 7 -8 10 -19 7 -25
-3 -5 3 -7 14 -4 19 5 50 -17 50 -35 0 -6 5 -12 12 -14 7 -3 12 -15 13 -29 1
-44 26 -101 41 -95 9 3 14 -1 14 -12 0 -9 13 -28 29 -42 17 -13 28 -27 25 -31
-2 -4 0 -10 6 -14 6 -4 9 7 7 27 -1 18 -8 33 -14 33 -6 0 -15 3 -19 8 -4 4 -2
7 5 7 7 0 9 5 6 10 -13 20 7 9 30 -17 26 -30 33 -49 13 -37 -10 6 -10 4 0 -8
7 -8 9 -24 5 -33 -5 -13 -3 -16 6 -10 13 7 31 -10 31 -30 0 -5 -4 -3 -10 5
-11 18 -16 13 -25 -23 -6 -20 -4 -27 8 -27 8 0 17 6 20 13 3 9 10 7 23 -7 19
-18 18 -18 -3 -12 -15 5 -26 1 -37 -16 -14 -19 -18 -21 -26 -8 -8 12 -10 12
-16 -3 -3 -9 -4 -25 -2 -35 3 -11 -4 -25 -19 -35 -24 -19 -32 -10 -11 11 25
25 -7 11 -34 -15 -19 -18 -28 -37 -28 -57 0 -21 -3 -27 -9 -17 -7 10 -10 10
-16 1 -4 -7 -2 -16 6 -21 7 -4 11 -11 8 -14 -8 -7 -69 50 -69 65 0 7 6 5 16
-4 19 -20 30 -20 37 -1 6 15 -8 31 -16 18 -2 -5 -2 -1 1 7 24 76 29 105 17
115 -7 5 -15 24 -18 40 -2 17 -8 38 -12 48 -4 10 -3 17 3 17 6 0 13 -13 17
-30 4 -16 11 -30 17 -30 6 0 8 11 4 25 -4 16 -1 34 8 46 12 18 14 11 11 -68
-2 -93 -10 -133 -29 -145 -8 -5 -8 -10 0 -18 17 -17 53 51 54 102 1 24 -2 69
-5 102 -5 41 -4 56 4 52 6 -4 11 -18 11 -32 0 -13 4 -24 8 -24 4 0 6 -30 5
-67 -4 -81 5 -79 13 3 7 75 -16 139 -46 129 -16 -5 -20 -2 -20 15 0 11 -7 23
-15 26 -8 4 -13 10 -10 15 9 14 -19 69 -31 61 -8 -5 -9 -14 -1 -32 15 -37 19
-73 8 -66 -5 4 -12 2 -15 -3 -4 -5 -2 -12 4 -16 5 -3 10 -14 9 -23 0 -11 -3
-12 -6 -4 -10 25 -25 12 -19 -18 3 -17 1 -30 -4 -30 -6 0 -10 16 -10 36 0 21
-4 33 -10 29 -6 -4 -8 -28 -6 -58 5 -47 4 -46 -7 13 -7 36 -16 71 -21 78 -4 6
-2 12 3 12 6 0 11 -5 11 -12 0 -6 2 -9 5 -6 7 7 -15 68 -24 68 -5 0 -13 10
-19 23 -10 21 -11 21 -17 -10 -4 -18 -10 -33 -14 -33 -3 0 -7 -12 -8 -27 l-1
-28 19 24 c24 30 24 20 -1 -29 -23 -46 -26 -72 -6 -64 20 8 26 -29 8 -46 -19
-17 -42 -22 -42 -9 0 5 4 9 9 9 6 0 6 12 0 30 -13 35 -25 32 -34 -9 -3 -16
-13 -32 -21 -35 -8 -3 -14 -13 -13 -23 0 -16 1 -16 9 2 8 18 9 17 9 -7 1 -14
7 -28 14 -31 7 -3 1 -9 -14 -15 -40 -16 -43 -35 -21 -140 10 -48 4 -47 -16 1
l-12 32 6 -35 c3 -19 6 -52 6 -73 0 -28 4 -37 15 -35 17 3 40 -48 28 -60 -6
-7 -30 19 -38 42 -8 22 -18 -2 -11 -28 4 -17 13 -26 25 -26 12 0 19 -7 19 -20
0 -11 -4 -20 -10 -20 -5 0 -10 5 -10 10 0 6 -11 10 -25 10 -14 0 -37 7 -51 16
-13 9 -27 14 -31 11 -3 -4 -12 1 -20 11 -11 13 -13 13 -10 2 2 -8 13 -19 25
-25 12 -5 22 -13 22 -18 0 -4 -9 -3 -19 3 -22 11 -48 14 -38 3 4 -3 2 -12 -5
-20 -9 -11 -15 -10 -34 8 -26 25 -98 51 -102 38 -2 -5 -9 -6 -15 -2 -6 4 -25
8 -41 10 -35 4 -87 49 -79 69 3 8 0 14 -6 14 -6 0 -11 -5 -11 -11 0 -5 -5 -7
-11 -4 -6 4 -8 14 -5 21 3 8 -5 32 -18 52 -13 20 -27 52 -31 70 -5 24 -10 31
-18 23 -7 -7 -6 -15 3 -26 7 -8 10 -18 6 -22 -10 -11 -36 31 -30 50 3 9 0 17
-6 17 -6 0 -8 -5 -5 -10 15 -24 -14 -7 -31 17 -20 30 -21 33 -23 61 -1 14 -6
11 -26 -12 -15 -18 -25 -23 -25 -15 0 8 5 20 11 26 13 13 5 43 -11 43 -5 0
-10 -10 -10 -22 0 -17 -3 -20 -9 -9 -5 8 -16 11 -25 8 -11 -4 -16 -1 -16 10 0
43 -26 97 -56 117 -20 13 -34 31 -36 46 -2 14 -7 23 -13 20 -5 -3 -9 -8 -7
-12 1 -5 -2 -8 -7 -8 -10 0 -21 35 -21 70 0 20 2 22 10 10 9 -13 11 -13 19 0
5 8 8 17 5 21 -2 4 1 21 7 38 8 24 8 39 -1 62 -12 27 -14 28 -30 14 -9 -8 -25
-14 -36 -14 -16 1 -16 2 -2 6 10 2 31 18 49 34 25 24 29 32 19 44 -6 8 -10 20
-7 27 4 8 6 7 6 -4 1 -9 5 -19 10 -22 10 -7 71 43 71 58 0 5 -9 1 -20 -9 -11
-10 -20 -15 -20 -11 0 13 65 106 74 106 5 0 1 -9 -8 -19 -10 -11 -16 -27 -14
-36 3 -15 5 -15 23 0 11 9 13 13 5 9 -11 -5 -10 -1 3 12 15 17 19 17 28 4 7
-11 8 -9 4 10 -5 22 -1 27 29 38 20 8 36 18 36 24 0 5 7 8 15 4 8 -3 15 -1 15
4 0 6 -8 11 -17 11 -10 1 -4 4 12 8 24 5 36 18 61 64 36 67 45 78 99 106 44
23 119 27 215 10z m-440 -133 c0 -2 -8 -10 -17 -17 -16 -13 -17 -12 -4 4 13
16 21 21 21 13z m-40 -35 c0 -11 -80 -81 -93 -81 -5 0 -2 9 8 20 10 11 23 20
30 20 6 0 17 11 23 25 11 24 32 35 32 16z m-115 -67 c-15 -12 -16 -18 -7 -21
16 -6 -15 -32 -38 -32 -12 0 -12 1 1 9 9 5 20 21 23 35 4 15 13 25 24 25 15
-1 15 -2 -3 -16z m1069 0 c8 -22 8 -26 -3 -20 -5 4 -11 0 -14 -6 -7 -22 -19
-1 -12 21 8 25 21 27 29 5z m926 -4 c0 -5 -5 -10 -11 -10 -5 0 -7 5 -4 10 3 6
8 10 11 10 2 0 4 -4 4 -10z m-1000 -163 c0 -5 -4 -5 -10 -2 -5 3 -10 14 -10
23 0 15 2 15 10 2 5 -8 10 -19 10 -23z m547 7 c-3 -3 -12 -4 -19 -1 -8 3 -5 6
6 6 11 1 17 -2 13 -5z m43 -10 c0 -2 -7 -4 -15 -4 -8 0 -15 4 -15 10 0 5 7 7
15 4 8 -4 15 -8 15 -10z m-55 -34 c3 -5 2 -10 -4 -10 -5 0 -13 5 -16 10 -3 6
-2 10 4 10 5 0 13 -4 16 -10z m90 -10 c3 -5 2 -10 -4 -10 -5 0 -13 5 -16 10
-3 6 -2 10 4 10 5 0 13 -4 16 -10z m-1645 -43 c0 -2 -8 -19 -17 -38 -9 -19
-18 -28 -21 -20 -5 15 17 61 30 61 4 0 8 -2 8 -3z m-57 -57 c3 -11 1 -20 -4
-20 -5 0 -9 9 -9 20 0 11 2 20 4 20 2 0 6 -9 9 -20z m2236 -114 c17 -29 31
-61 31 -70 0 -9 8 -16 21 -16 14 0 19 -6 17 -17 -1 -10 2 -25 7 -33 14 -22 16
-82 3 -97 -8 -10 -6 -13 6 -13 9 0 16 -7 16 -15 0 -27 -25 -15 -42 21 -19 38
-24 89 -8 79 6 -3 10 -2 10 4 0 5 -5 13 -10 16 -6 4 -8 15 -5 26 5 15 1 19
-15 19 -15 0 -20 5 -17 15 4 8 2 17 -3 20 -6 4 -10 14 -10 24 0 9 -11 32 -25
51 -14 19 -25 38 -25 43 0 17 20 -5 49 -57z m-22 -52 c-9 -9 -37 15 -37 32 0
8 -4 14 -10 14 -5 0 -10 6 -10 12 0 7 14 -2 32 -19 18 -18 29 -35 25 -39z
m-717 46 c0 -5 -2 -10 -4 -10 -3 0 -8 5 -11 10 -3 6 -1 10 4 10 6 0 11 -4 11
-10z m370 -5 c0 -8 -4 -15 -10 -15 -5 0 -7 7 -4 15 4 8 8 15 10 15 2 0 4 -7 4
-15z m-524 -37 c15 -24 34 -48 41 -54 10 -9 9 -15 -8 -30 -21 -19 -22 -19 -15
3 4 12 2 24 -4 28 -6 4 -16 19 -22 33 -9 25 -11 25 -17 8 -5 -13 -10 -16 -14
-9 -4 7 -3 14 2 17 5 3 7 15 4 26 -8 31 2 24 33 -22z m264 22 c0 -5 -2 -10 -4
-10 -3 0 -8 5 -11 10 -3 6 -1 10 4 10 6 0 11 -4 11 -10z m-592 -25 c-3 -14 -1
-28 3 -31 5 -3 9 -38 9 -79 0 -55 -4 -74 -15 -79 -17 -6 -21 9 -5 19 6 3 10
15 10 26 0 11 -4 17 -10 14 -5 -3 -10 3 -10 15 0 12 4 19 9 15 12 -7 1 68 -10
75 -11 8 1 50 13 50 6 0 8 -11 6 -25z m498 -77 c7 -28 11 -55 8 -60 -4 -5 -8
-27 -10 -48 -3 -32 -1 -38 12 -33 14 5 14 2 -1 -28 -22 -43 -30 -51 -20 -21 5
18 1 29 -14 43 -12 11 -21 30 -21 42 1 22 1 22 14 -2 12 -23 13 -21 20 28 9
65 -1 115 -25 137 -10 9 -19 24 -19 32 0 29 42 -39 56 -90z m12 57 c-2 -12 -7
-7 -15 16 -12 30 -11 32 3 17 9 -8 14 -23 12 -33z m-383 17 c-3 -3 -11 0 -18
7 -9 10 -8 11 6 5 10 -3 15 -9 12 -12z m-1069 -77 c6 -32 1 -56 -10 -44 -10
11 -16 79 -7 79 6 0 13 -16 17 -35z m1494 -30 c0 -3 -7 -5 -16 -5 -10 0 -14 6
-11 15 4 8 2 17 -3 20 -6 4 -10 14 -10 23 0 11 7 5 20 -16 11 -18 20 -35 20
-37z m-480 10 c0 -34 -12 -46 -26 -24 -3 6 -1 14 5 18 6 4 9 15 5 24 -3 10 -1
17 5 17 6 0 11 -16 11 -35z m1100 -37 c0 -41 -39 -4 -55 52 l-7 25 31 -29 c17
-17 31 -38 31 -48z m-785 43 c-3 -6 -11 -11 -17 -11 -6 0 -6 6 2 15 14 17 26
13 15 -4z m85 -11 c0 -5 -4 -10 -10 -10 -5 0 -10 5 -10 10 0 6 5 10 10 10 6 0
10 -4 10 -10z m-117 -30 c-3 -11 -9 -20 -14 -20 -11 0 -11 3 -3 24 9 23 23 20
17 -4z m794 -31 c16 -23 32 -48 38 -55 5 -7 7 -16 4 -19 -9 -9 -39 6 -39 19 0
7 -8 21 -19 32 -23 25 -36 64 -22 64 6 0 23 -19 38 -41z m-617 -4 c0 -8 -4
-15 -10 -15 -5 0 -10 7 -10 15 0 8 5 15 10 15 6 0 10 -7 10 -15z m130 -25 c0
-13 -1 -13 -10 0 -5 8 -10 22 -10 30 0 13 1 13 10 0 5 -8 10 -22 10 -30z
m-380 10 c0 -5 -4 -10 -10 -10 -5 0 -10 5 -10 10 0 6 5 10 10 10 6 0 10 -4 10
-10z m-390 -74 c-11 -11 -22 -17 -25 -14 -3 3 1 13 10 21 14 14 14 17 0 25
-10 5 -13 15 -9 26 6 15 9 14 25 -11 18 -27 18 -28 -1 -47z m528 24 c3 -44 1
-50 -17 -50 -21 0 -37 17 -26 28 3 3 10 0 14 -7 6 -10 10 -10 16 -2 4 7 1 18
-5 26 -11 14 -5 55 8 55 4 0 8 -23 10 -50z m740 -23 c18 -26 32 -52 32 -58 0
-12 -17 -12 -25 1 -3 6 -11 10 -17 10 -5 0 0 -16 11 -36 25 -42 22 -51 -10
-34 l-22 13 22 -38 c14 -25 19 -41 12 -48 -6 -6 -14 -2 -23 12 -7 11 -17 21
-21 21 -5 0 1 -15 12 -34 12 -18 21 -41 21 -50 0 -13 -3 -14 -19 -4 -11 7 -24
21 -30 33 -5 11 -10 14 -10 7 -1 -7 11 -30 25 -52 14 -21 23 -44 19 -49 -7
-12 -20 -2 -48 39 -12 18 -17 20 -17 8 0 -9 6 -23 13 -30 14 -14 37 -53 37
-62 0 -18 -32 -2 -44 22 -10 17 -15 21 -16 11 0 -9 7 -22 15 -29 8 -7 12 -16
9 -22 -3 -5 -1 -14 4 -21 5 -7 8 -23 7 -37 -2 -14 -4 -31 -4 -37 -1 -7 -20
-22 -43 -34 -38 -19 -56 -21 -215 -20 l-174 2 -127 -57 c-213 -94 -223 -100
-277 -165 -27 -34 -60 -77 -73 -97 -18 -29 -22 -31 -17 -12 4 14 18 42 31 62
13 21 24 41 24 44 0 14 75 119 111 156 36 37 103 88 116 88 3 0 46 18 95 41
l89 41 124 -1 c69 -1 130 -4 137 -6 7 -3 33 -1 58 4 42 8 38 9 -45 12 -49 1
-99 4 -110 5 -11 1 -51 2 -89 3 -38 1 -67 3 -64 6 3 4 82 6 176 6 156 0 173 2
196 20 25 19 39 78 16 64 -5 -3 -10 -15 -10 -25 0 -23 -26 -50 -47 -50 -11 0
-7 7 11 21 15 12 25 27 23 33 -3 7 1 20 9 31 10 13 11 22 3 32 -19 22 2 14 22
-9 21 -23 26 -9 8 23 -9 17 -7 21 10 26 11 3 18 9 15 14 -3 5 -7 23 -9 40 l-4
30 19 -23 19 -23 -6 40 c-5 38 -5 39 10 20 9 -11 17 -15 17 -7 0 6 -8 20 -18
30 -15 15 -16 24 -7 71 10 55 10 55 23 26 7 -15 15 -25 18 -23 2 3 -2 18 -11
34 -16 31 -21 64 -7 49 5 -6 23 -32 40 -58z m-2049 17 c22 -37 28 -74 11 -74
-11 0 -50 73 -50 95 0 26 17 17 39 -21z m1441 -29 c0 -9 -7 -18 -16 -22 -8 -3
-13 -11 -11 -17 2 -6 1 -20 -4 -31 -6 -16 -8 -12 -8 16 -1 25 4 39 15 43 8 3
12 10 9 16 -3 5 -1 10 4 10 6 0 11 -7 11 -15z m-70 -61 c0 -4 -5 -3 -12 4 -9
9 -16 8 -30 -5 -18 -16 -18 -16 -12 0 3 9 10 17 16 17 5 0 6 10 2 23 -6 20 -5
20 15 -5 11 -14 21 -30 21 -34z m-570 26 c0 -5 -4 -10 -10 -10 -5 0 -10 5 -10
10 0 6 5 10 10 10 6 0 10 -4 10 -10z m490 -12 c0 -7 -10 -24 -21 -38 l-20 -25
7 25 c6 24 22 50 30 50 2 0 4 -6 4 -12z m-1570 -102 c0 -3 -4 -8 -10 -11 -5
-3 -10 -1 -10 4 0 6 5 11 10 11 6 0 10 -2 10 -4z m1327 -68 c-3 -8 -6 -5 -6 6
-1 11 2 17 5 13 3 -3 4 -12 1 -19z m1410 -60 c-3 -8 -6 -5 -6 6 -1 11 2 17 5
13 3 -3 4 -12 1 -19z m190 -125 c9 -53 32 -124 57 -178 35 -78 41 -101 44
-175 2 -47 -1 -96 -6 -110 -7 -20 -10 -8 -11 52 -1 52 -8 92 -21 123 -11 26
-20 54 -20 63 0 8 -11 44 -25 78 -14 35 -30 97 -35 138 -5 41 -12 88 -15 103
-5 23 -4 25 5 11 6 -9 18 -57 27 -105z m-781 71 c-11 -7 -22 -11 -25 -8 -3 3
3 12 13 20 11 7 22 11 25 8 3 -3 -3 -12 -13 -20z m-86 -13 c14 -4 -17 -7 -68
-6 -51 0 -83 3 -70 7 30 8 107 8 138 -1z m522 -33 c-7 -7 -12 -8 -12 -2 0 14
12 26 19 19 2 -3 -1 -11 -7 -17z m-848 -43 c-37 -19 -69 -33 -71 -31 -8 7 101
64 125 65 8 1 -17 -15 -54 -34z m886 -6 c0 -5 -4 -9 -10 -9 -5 0 -10 7 -10 16
0 8 5 12 10 9 6 -3 10 -10 10 -16z m-2636 -195 c10 -26 6 -78 -7 -94 -15 -19
-57 -43 -64 -37 -2 3 -6 25 -9 50 -5 47 10 72 28 46 8 -12 9 -11 5 1 -4 15 19
50 33 50 5 0 11 -7 14 -16z m186 -45 c0 -11 -4 -17 -10 -14 -5 3 -10 13 -10
21 0 8 5 14 10 14 6 0 10 -9 10 -21z m2540 -58 c20 -40 45 -149 36 -158 -3 -3
-8 3 -12 13 -4 10 -18 44 -31 74 -14 30 -29 72 -33 93 -6 32 -5 36 7 25 8 -6
23 -28 33 -47z m-2720 -67 c0 -60 -15 -66 -26 -9 -5 30 6 65 22 65 2 0 4 -25
4 -56z m2527 34 c-3 -8 -6 -5 -6 6 -1 11 2 17 5 13 3 -3 4 -12 1 -19z m-767
-52 c0 -18 -6 -40 -12 -49 -11 -14 -13 -8 -13 42 0 46 3 57 13 49 6 -6 12 -25
12 -42z"/>
<path d="M3135 1750 c-3 -5 1 -10 9 -10 9 0 16 5 16 10 0 6 -4 10 -9 10 -6 0
-13 -4 -16 -10z"/>
<path d="M3010 1699 c0 -5 5 -7 10 -4 6 3 10 8 10 11 0 2 -4 4 -10 4 -5 0 -10
-5 -10 -11z"/>
<path d="M2335 1680 c-3 -5 -2 -10 4 -10 5 0 13 5 16 10 3 6 2 10 -4 10 -5 0
-13 -4 -16 -10z"/>
<path d="M2961 1666 c-9 -10 -8 -15 3 -19 16 -7 26 1 26 20 0 17 -14 17 -29
-1z"/>
<path d="M2960 1598 c-2 -5 -3 -11 -4 -15 -1 -5 -5 -14 -10 -21 -4 -7 -6 -16
-3 -19 8 -8 29 37 23 50 -2 7 -5 9 -6 5z"/>
<path d="M2960 1505 c0 -8 2 -15 4 -15 2 0 6 7 10 15 3 8 1 15 -4 15 -6 0 -10
-7 -10 -15z"/>
<path d="M3005 1500 c3 -5 8 -10 11 -10 2 0 4 5 4 10 0 6 -5 10 -11 10 -5 0
-7 -4 -4 -10z"/>
<path d="M2120 1455 c-7 -9 -8 -15 -2 -15 5 0 12 7 16 15 3 8 4 15 2 15 -2 0
-9 -7 -16 -15z"/>
<path d="M3106 1417 c-3 -12 -1 -24 4 -25 6 -2 8 -8 5 -13 -4 -5 1 -6 9 -3 18
7 22 24 6 24 -5 0 -7 6 -4 14 3 8 1 17 -4 20 -5 3 -12 -4 -16 -17z"/>
<path d="M3010 1412 c0 -10 23 -22 42 -22 12 0 1 15 -10 15 -4 0 -13 4 -19 8
-7 5 -13 4 -13 -1z"/>
<path d="M3009 1375 c-3 -6 -7 -27 -8 -47 -3 -40 13 -52 22 -18 6 23 -7 79
-14 65z"/>
<path d="M2220 1355 c-7 -9 -8 -15 -2 -15 5 0 12 7 16 15 3 8 4 15 2 15 -2 0
-9 -7 -16 -15z"/>
<path d="M2180 1305 c-20 -24 -6 -28 15 -5 10 11 13 20 8 20 -6 0 -16 -7 -23
-15z"/>
<path d="M2235 1279 c-4 -6 -5 -12 -2 -15 2 -3 7 2 10 11 7 17 1 20 -8 4z"/>
<path d="M3110 1283 c0 -4 5 -15 10 -23 8 -13 10 -13 10 2 0 9 -4 20 -10 23
-5 3 -10 3 -10 -2z"/>
<path d="M2830 1260 c-14 -11 -19 -20 -12 -20 14 0 47 28 41 35 -3 2 -15 -5
-29 -15z"/>
<path d="M2301 1236 c-8 -14 -12 -29 -8 -32 7 -7 29 34 25 47 -2 6 -10 -1 -17
-15z"/>
<path d="M2174 1235 c-4 -8 -10 -12 -15 -9 -5 3 -9 -2 -9 -12 0 -15 2 -15 22
-2 12 8 24 20 26 26 6 18 -18 14 -24 -3z"/>
<path d="M2256 1213 c-6 -14 -5 -15 5 -6 7 7 10 15 7 18 -3 3 -9 -2 -12 -12z"/>
<path d="M2799 1204 c-11 -30 -3 -46 11 -24 10 16 13 50 5 50 -3 0 -10 -12
-16 -26z"/>
<path d="M2856 1183 c-6 -14 -5 -15 5 -6 7 7 10 15 7 18 -3 3 -9 -2 -12 -12z"/>
<path d="M2890 1178 c0 -19 2 -20 10 -8 13 19 13 30 0 30 -5 0 -10 -10 -10
-22z"/>
<path d="M2233 1179 c-6 -6 -9 -18 -6 -25 3 -8 0 -14 -6 -14 -8 0 -8 -4 1 -14
11 -12 14 -8 19 23 8 41 7 45 -8 30z"/>
<path d="M2277 1177 c-11 -29 -9 -43 4 -30 6 6 9 19 7 29 -3 18 -4 18 -11 1z"/>
<path d="M2818 1143 c7 -3 16 -2 19 1 4 3 -2 6 -13 5 -11 0 -14 -3 -6 -6z"/>
<path d="M2848 1112 c5 -9 12 -24 15 -32 3 -9 6 -4 6 11 1 15 -6 29 -14 33
-12 4 -13 2 -7 -12z"/>
<path d="M2280 1105 c0 -8 2 -15 4 -15 2 0 6 7 10 15 3 8 1 15 -4 15 -6 0 -10
-7 -10 -15z"/>
<path d="M2315 1110 c3 -5 8 -10 11 -10 2 0 4 5 4 10 0 6 -5 10 -11 10 -5 0
-7 -4 -4 -10z"/>
<path d="M2692 1100 c0 -14 2 -19 5 -12 2 6 2 18 0 25 -3 6 -5 1 -5 -13z"/>
<path d="M3180 1090 c0 -5 5 -10 10 -10 6 0 10 5 10 10 0 6 -4 10 -10 10 -5 0
-10 -4 -10 -10z"/>
<path d="M2685 1050 c-3 -5 -1 -10 4 -10 6 0 11 5 11 10 0 6 -2 10 -4 10 -3 0
-8 -4 -11 -10z"/>
<path d="M2574 1006 c3 -14 2 -28 -4 -31 -5 -3 -10 -11 -10 -17 0 -7 6 -6 15
2 17 14 20 70 4 70 -7 0 -9 -10 -5 -24z"/>
<path d="M2871 1014 c0 -11 3 -14 6 -6 3 7 2 16 -1 19 -3 4 -6 -2 -5 -13z"/>
<path d="M2800 1014 c0 -13 18 -39 24 -34 2 3 -2 14 -10 24 -8 11 -14 16 -14
10z"/>
<path d="M2740 973 c0 -12 5 -25 10 -28 13 -8 13 15 0 35 -8 12 -10 11 -10 -7z"/>
<path d="M2702 946 c-3 -42 19 -88 34 -71 8 8 8 16 -2 30 -8 10 -14 29 -14 41
0 36 -16 36 -18 0z"/>
<path d="M2515 930 c3 -5 8 -10 11 -10 2 0 4 5 4 10 0 6 -5 10 -11 10 -5 0 -7
-4 -4 -10z"/>
<path d="M2820 931 c0 -6 5 -13 10 -16 6 -3 10 1 10 9 0 9 -4 16 -10 16 -5 0
-10 -4 -10 -9z"/>
<path d="M2565 909 c10 -35 23 -45 18 -15 -3 15 -10 29 -15 32 -6 4 -7 -2 -3
-17z"/>
<path d="M2490 911 c0 -5 7 -11 15 -15 8 -3 15 -1 15 3 0 5 -7 11 -15 15 -8 3
-15 1 -15 -3z"/>
<path d="M2864 874 c-5 -25 -9 -32 -15 -22 -5 8 -9 8 -9 2 0 -6 6 -17 14 -23
7 -6 11 -22 9 -35 -6 -27 7 -39 27 -26 11 7 11 11 1 24 -9 11 -10 16 -2 16 6
0 11 7 11 15 0 8 -4 15 -9 15 -13 0 -20 37 -9 48 6 6 6 12 -1 16 -6 4 -13 -8
-17 -30z"/>
<path d="M2520 863 c1 -4 12 -21 26 -38 22 -26 24 -27 13 -5 -14 27 -39 56
-39 43z"/>
<path d="M2753 851 c0 -11 5 -18 9 -15 4 3 5 11 1 19 -7 21 -12 19 -10 -4z"/>
<path d="M2620 833 c0 -17 55 -75 63 -66 11 10 8 23 -4 21 -6 -2 -14 3 -17 11
-3 8 0 11 7 7 6 -4 11 0 11 9 0 12 -6 15 -22 10 -16 -6 -20 -4 -15 7 3 9 -1
15 -9 15 -8 0 -14 -6 -14 -14z"/>
<path d="M2730 812 c0 -12 60 -65 67 -58 3 2 -4 13 -14 23 -34 33 -53 46 -53
35z"/>
<path d="M2540 789 c0 -10 37 -49 47 -49 2 0 -6 14 -19 30 -24 33 -28 36 -28
19z"/>
<path d="M2726 767 c3 -10 9 -15 12 -12 3 3 0 11 -7 18 -10 9 -11 8 -5 -6z"/>
<path d="M2720 720 c36 -30 61 -40 41 -17 -6 8 -9 16 -7 18 3 3 -12 10 -32 16
l-37 12 35 -29z"/>
<path d="M4340 1058 c0 -9 5 -20 10 -23 13 -8 13 5 0 25 -8 13 -10 13 -10 -2z"/>
<path d="M4086 545 c-11 -8 -17 -17 -14 -20 2 -3 13 4 23 15 21 23 18 25 -9 5z"/>
<path d="M3705 501 c-32 -8 -296 -140 -282 -140 4 -1 65 28 136 63 142 71 149
73 321 62 65 -4 128 -3 145 2 24 8 14 10 -50 9 -44 0 -116 3 -160 6 -44 3 -93
2 -110 -2z"/>
<path d="M3710 470 c-35 -8 -263 -119 -246 -120 4 0 58 25 120 55 119 58 135
61 286 56 57 -2 79 -5 65 -11 -11 -4 -60 -6 -110 -3 -49 2 -85 1 -78 -4 18
-13 190 -10 204 4 7 7 11 14 8 17 -9 8 -217 14 -249 6z"/>
<path d="M4120 470 c-9 -6 -10 -10 -3 -10 6 0 15 5 18 10 8 12 4 12 -15 0z"/>
<path d="M3980 460 c0 -7 14 -8 38 -4 51 9 53 14 4 14 -23 0 -42 -5 -42 -10z"/>
<path d="M4087 453 c-4 -3 -35 -10 -69 -14 l-63 -8 63 3 c34 1 68 8 74 14 7 7
10 12 7 12 -3 0 -9 -3 -12 -7z"/>
<path d="M3625 404 c-33 -19 -49 -32 -35 -28 14 3 38 16 54 27 15 11 42 23 60
27 27 7 28 8 6 9 -14 0 -52 -16 -85 -35z"/>
<path d="M3500 345 c-14 -8 -20 -14 -14 -15 5 0 19 7 30 15 24 18 16 19 -16 0z"/>
<path d="M3425 340 c-3 -5 -2 -10 4 -10 5 0 13 5 16 10 3 6 2 10 -4 10 -5 0
-13 -4 -16 -10z"/>
<path d="M3298 5633 c7 -3 16 -2 19 1 4 3 -2 6 -13 5 -11 0 -14 -3 -6 -6z"/>
<path d="M3038 5616 c-69 -15 -92 -32 -28 -21 25 4 54 8 65 10 11 1 27 4 35 8
8 3 26 8 40 10 15 3 9 4 -15 5 -22 0 -66 -5 -97 -12z"/>
<path d="M2914 5585 c-17 -13 -16 -14 14 -4 33 11 41 19 19 19 -7 0 -22 -7
-33 -15z"/>
<path d="M2845 5410 c-3 -5 -1 -10 4 -10 6 0 11 5 11 10 0 6 -2 10 -4 10 -3 0
-8 -4 -11 -10z"/>
<path d="M2493 5278 c-37 -42 -37 -54 0 -19 21 19 37 36 37 38 0 10 -19 0 -37
-19z"/>
<path d="M2405 5230 c-16 -11 -26 -20 -22 -20 4 0 -8 -14 -28 -31 -19 -17 -35
-36 -35 -42 0 -6 14 4 31 21 17 18 35 32 40 32 4 0 17 14 29 30 25 35 24 36
-15 10z"/>
<path d="M2545 5222 c-30 -10 -105 -55 -105 -63 0 -5 123 54 139 68 6 5 -11 2
-34 -5z"/>
<path d="M2577 4879 c7 -7 15 -10 18 -7 3 3 -2 9 -12 12 -14 6 -15 5 -6 -5z"/>
<path d="M2355 4870 c3 -5 8 -10 11 -10 2 0 4 5 4 10 0 6 -5 10 -11 10 -5 0
-7 -4 -4 -10z"/>
<path d="M2146 4809 c-13 -12 -15 -19 -7 -19 11 0 11 -3 1 -15 -18 -22 -6 -18
35 9 19 14 31 27 25 31 -5 3 -10 1 -10 -4 0 -6 -5 -11 -11 -11 -6 0 -9 7 -5
15 7 20 -5 18 -28 -6z"/>
<path d="M2186 4766 c-22 -13 -46 -21 -54 -18 -11 4 -13 0 -7 -19 10 -33 11
-33 34 -10 11 11 32 23 46 27 16 4 25 13 25 25 0 23 3 24 -44 -5z"/>
<path d="M2195 4720 c-3 -5 1 -10 10 -10 9 0 13 5 10 10 -3 6 -8 10 -10 10 -2
0 -7 -4 -10 -10z"/>
<path d="M2160 4670 c0 -5 6 -9 13 -7 6 1 11 -6 11 -15 -1 -14 2 -15 17 -8 25
14 38 35 16 27 -10 -3 -17 -2 -17 3 0 6 -9 10 -20 10 -11 0 -20 -4 -20 -10z"/>
<path d="M2122 4647 c-8 -10 -6 -13 9 -13 10 0 19 6 19 13 0 7 -4 13 -9 13 -5
0 -13 -6 -19 -13z"/>
<path d="M2092 4575 c-7 -8 -9 -15 -4 -15 5 0 15 7 22 15 16 19 -1 19 -18 0z"/>
<path d="M3886 4342 c-3 -6 -1 -14 5 -17 14 -9 20 -2 10 14 -6 8 -11 9 -15 3z"/>
<path d="M3885 4290 c-3 -5 -1 -10 4 -10 6 0 11 5 11 10 0 6 -2 10 -4 10 -3 0
-8 -4 -11 -10z"/>
<path d="M3818 4143 c7 -3 16 -2 19 1 4 3 -2 6 -13 5 -11 0 -14 -3 -6 -6z"/>
<path d="M3761 4034 c-1 -22 -25 -39 -42 -29 -5 4 -6 -1 -3 -9 7 -18 24 -22
24 -6 0 6 5 10 10 10 6 0 10 -7 10 -15 0 -17 9 -19 29 -6 7 5 11 13 7 19 -4 6
3 8 16 4 21 -5 22 -4 9 11 -7 9 -22 17 -31 17 -10 0 -21 6 -23 13 -3 6 -6 2
-6 -9z"/>
<path d="M3693 3915 c-17 -19 -16 -25 2 -25 8 0 15 9 15 20 0 23 -1 24 -17 5z"/>
<path d="M1560 3810 c0 -11 5 -20 10 -20 6 0 10 9 10 20 0 11 -4 20 -10 20 -5
0 -10 -9 -10 -20z"/>
<path d="M2680 3492 c-8 -3 -28 -15 -45 -27 -16 -12 -37 -20 -45 -17 -13 5
-13 3 0 -14 8 -10 19 -22 24 -25 15 -11 -69 -27 -164 -30 -30 -2 -64 -9 -75
-16 -11 -7 -27 -13 -36 -13 -20 0 -34 -16 -44 -49 -6 -20 -4 -23 9 -18 10 4
15 3 11 -3 -11 -18 23 -22 67 -7 59 20 98 39 98 47 0 3 16 7 36 8 32 2 35 0
29 -15 -5 -10 -10 -35 -13 -55 -3 -33 1 -43 30 -72 43 -43 89 -52 187 -37 110
16 119 15 89 -8 -19 -15 -38 -19 -80 -18 -31 2 -54 -1 -52 -5 2 -4 -10 -8 -28
-10 -18 -2 -31 -7 -28 -13 3 -5 19 -9 35 -8 17 2 39 -4 50 -12 17 -14 18 -17
5 -25 -8 -5 -32 -10 -52 -10 -21 0 -38 -4 -38 -10 0 -5 -8 -10 -17 -10 -17 -1
-17 -1 0 -11 21 -12 177 -18 177 -7 0 4 7 8 15 8 17 0 20 -16 5 -25 -8 -5 -8
-11 0 -20 6 -8 10 -21 8 -31 -2 -10 4 -18 15 -20 22 -3 79 58 110 118 l23 45
-33 29 c-39 34 -41 44 -9 44 15 0 26 7 29 20 3 12 14 20 26 20 12 0 34 8 48
18 15 9 53 22 86 27 51 8 64 15 88 45 15 19 34 59 43 88 15 51 15 52 -10 79
-21 23 -24 24 -25 7 -1 -10 -1 -23 0 -28 4 -17 -22 -55 -32 -49 -6 4 -8 0 -4
-10 4 -11 2 -14 -9 -10 -7 3 -14 0 -14 -6 0 -18 -38 -13 -50 7 -11 16 -11 16
-6 0 4 -15 0 -16 -27 -11 -18 4 -45 14 -61 24 -16 10 -35 15 -42 12 -9 -3 -14
2 -14 13 0 14 -2 16 -9 6 -9 -14 -18 -10 -112 52 -30 20 -58 30 -89 31 -26 1
-50 4 -56 7 -5 3 -16 3 -24 0z m515 -172 c-3 -5 -10 -10 -16 -10 -5 0 -9 5 -9
10 0 6 7 10 16 10 8 0 12 -4 9 -10z m-585 -20 c0 -5 -4 -10 -10 -10 -5 0 -10
5 -10 10 0 6 5 10 10 10 6 0 10 -4 10 -10z m320 -124 c0 -3 -4 -8 -10 -11 -5
-3 -10 -1 -10 4 0 6 5 11 10 11 6 0 10 -2 10 -4z m-44 -214 c-29 -30 -44 -23
-28 12 8 18 16 23 32 19 22 -6 22 -6 -4 -31z"/>
<path d="M3890 3470 c0 -5 5 -10 10 -10 6 0 10 5 10 10 0 6 -4 10 -10 10 -5 0
-10 -4 -10 -10z"/>
<path d="M3591 3344 c0 -11 3 -14 6 -6 3 7 2 16 -1 19 -3 4 -6 -2 -5 -13z"/>
<path d="M2585 3100 c4 -6 11 -8 16 -5 14 9 11 15 -7 15 -8 0 -12 -5 -9 -10z"/>
<path d="M2942 2310 c-48 -11 -48 -16 -4 -44 39 -25 114 -50 82 -27 -12 8 -12
11 3 17 17 6 52 2 107 -12 24 -6 24 -5 -5 19 -24 21 -128 60 -146 56 -2 -1
-19 -5 -37 -9z"/>
<path d="M1814 2173 c2 -12 -1 -24 -8 -27 -6 -2 -3 -5 7 -5 19 -1 20 5 6 34
-9 19 -9 19 -5 -2z"/>
<path d="M2998 2153 c7 -3 16 -2 19 1 4 3 -2 6 -13 5 -11 0 -14 -3 -6 -6z"/>
<path d="M1817 2123 c-4 -3 -7 -20 -6 -37 l1 -31 9 34 c10 33 8 47 -4 34z"/>
<path d="M2715 2110 c-3 -5 -1 -10 4 -10 6 0 11 5 11 10 0 6 -2 10 -4 10 -3 0
-8 -4 -11 -10z"/>
<path d="M2444 2059 c-19 -22 -19 -22 4 -8 12 8 22 17 22 21 0 12 -6 9 -26
-13z"/>
<path d="M2660 2069 c0 -5 5 -7 10 -4 6 3 10 8 10 11 0 2 -4 4 -10 4 -5 0 -10
-5 -10 -11z"/>
<path d="M2635 2051 c-3 -5 -1 -12 5 -16 5 -3 10 1 10 9 0 18 -6 21 -15 7z"/>
<path d="M2340 2040 c0 -13 11 -13 30 0 12 8 11 10 -7 10 -13 0 -23 -4 -23
-10z"/>
<path d="M2310 2010 c-8 -5 -12 -11 -10 -14 3 -2 14 2 24 10 22 15 10 19 -14
4z"/>
<path d="M2257 1903 c-4 -3 -7 -11 -7 -17 0 -6 5 -5 12 2 6 6 9 14 7 17 -3 3
-9 2 -12 -2z"/>
<path d="M2077 1849 c-4 -16 -3 -18 9 -8 16 13 19 29 5 29 -5 0 -11 -9 -14
-21z"/>
<path d="M1962 1825 c0 -16 2 -22 5 -12 2 9 2 23 0 30 -3 6 -5 -1 -5 -18z"/>
<path d="M2120 1820 c0 -5 4 -10 9 -10 6 0 13 5 16 10 3 6 -1 10 -9 10 -9 0
-16 -4 -16 -10z"/>
<path d="M1830 1800 c0 -5 5 -10 10 -10 6 0 10 5 10 10 0 6 -4 10 -10 10 -5 0
-10 -4 -10 -10z"/>
<path d="M1914 1795 c3 -10 -1 -15 -12 -15 -16 -1 -16 -1 1 -11 9 -5 17 -15
17 -20 0 -6 7 -17 15 -25 18 -19 19 -5 1 19 -7 9 -11 28 -8 42 3 16 0 25 -8
25 -7 0 -10 -7 -6 -15z"/>
<path d="M2090 1781 c-15 -30 -12 -33 10 -11 22 22 25 30 10 30 -5 0 -14 -9
-20 -19z"/>
<path d="M1967 1757 c-5 -15 11 -77 21 -77 12 0 9 79 -4 84 -7 3 -14 -1 -17
-7z"/>
<path d="M1951 1684 c0 -11 3 -14 6 -6 3 7 2 16 -1 19 -3 4 -6 -2 -5 -13z"/>
<path d="M1801 1674 c0 -11 3 -14 6 -6 3 7 2 16 -1 19 -3 4 -6 -2 -5 -13z"/>
<path d="M1761 1634 c0 -11 3 -14 6 -6 3 7 2 16 -1 19 -3 4 -6 -2 -5 -13z"/>
<path d="M1792 1625 c0 -16 2 -22 5 -12 2 9 2 23 0 30 -3 6 -5 -1 -5 -18z"/>
<path d="M1752 1530 c0 -14 2 -19 5 -12 2 6 2 18 0 25 -3 6 -5 1 -5 -13z"/>
<path d="M1781 1534 c0 -11 3 -14 6 -6 3 7 2 16 -1 19 -3 4 -6 -2 -5 -13z"/>
<path d="M1831 1403 c-1 -35 39 -236 46 -229 3 2 -5 51 -16 108 -11 56 -22
114 -24 128 -4 21 -5 19 -6 -7z"/>
<path d="M1791 1390 c0 -14 6 -52 13 -85 18 -78 19 -40 1 45 -7 36 -13 54 -14
40z"/>
<path d="M1755 1360 c2 -25 11 -65 20 -90 12 -38 14 -39 9 -10 -4 19 -13 60
-20 90 -14 54 -14 54 -9 10z"/>
<path d="M1612 1360 c0 -19 2 -27 5 -17 2 9 2 25 0 35 -3 9 -5 1 -5 -18z"/>
<path d="M1652 1360 c0 -19 2 -27 5 -17 2 9 2 25 0 35 -3 9 -5 1 -5 -18z"/>
<path d="M1681 1320 c-1 -27 70 -273 77 -266 2 3 -11 53 -29 113 -17 59 -35
124 -39 143 -6 27 -8 30 -9 10z"/>
<path d="M1722 1320 c0 -14 2 -19 5 -12 2 6 2 18 0 25 -3 6 -5 1 -5 -13z"/>
<path d="M1611 1304 c0 -11 3 -14 6 -6 3 7 2 16 -1 19 -3 4 -6 -2 -5 -13z"/>
<path d="M1731 1285 c0 -5 8 -37 19 -70 11 -33 17 -44 13 -25 -6 38 -31 111
-32 95z"/>
<path d="M1543 1230 c0 -30 2 -43 4 -27 2 15 2 39 0 55 -2 15 -4 2 -4 -28z"/>
<path d="M1651 1259 c0 -14 15 -77 35 -140 20 -63 47 -154 61 -204 14 -52 21
-71 18 -45 -3 25 -28 119 -55 210 -27 91 -51 174 -53 185 -4 16 -5 14 -6 -6z"/>
<path d="M1616 1215 c3 -27 28 -122 55 -210 28 -88 54 -182 58 -210 6 -36 9
-42 10 -19 1 35 -27 151 -69 279 -16 50 -36 117 -45 150 l-15 60 6 -50z"/>
<path d="M1821 1228 c-1 -25 46 -206 59 -226 10 -15 10 -14 6 3 -3 11 -17 65
-31 120 -30 116 -33 126 -34 103z"/>
<path d="M1580 1186 c0 -25 24 -118 66 -254 19 -62 39 -131 43 -155 6 -30 9
-35 10 -15 1 15 -15 80 -35 145 -20 65 -47 159 -60 208 -12 50 -23 82 -24 71z"/>
<path d="M1512 1145 c0 -16 2 -22 5 -12 2 9 2 23 0 30 -3 6 -5 -1 -5 -18z"/>
<path d="M1278 1152 c9 -6 6 -16 -13 -38 -45 -51 -115 -160 -115 -179 0 -12
69 73 104 127 19 31 40 59 46 63 19 12 10 35 -12 35 -16 0 -19 -3 -10 -8z"/>
<path d="M1801 1144 c0 -11 3 -14 6 -6 3 7 2 16 -1 19 -3 4 -6 -2 -5 -13z"/>
<path d="M1881 1145 c0 -11 8 -54 19 -95 10 -41 19 -66 19 -55 0 11 -8 54 -19
95 -10 41 -19 66 -19 55z"/>
<path d="M1217 1125 c-13 -15 -35 -46 -47 -69 l-23 -41 37 35 c35 33 71 89 62
97 -2 2 -15 -8 -29 -22z"/>
<path d="M1772 1130 c0 -14 2 -19 5 -12 2 6 2 18 0 25 -3 6 -5 1 -5 -13z"/>
<path d="M1452 1120 c0 -14 2 -19 5 -12 2 6 2 18 0 25 -3 6 -5 1 -5 -13z"/>
<path d="M1551 1132 c-2 -24 87 -364 109 -417 17 -42 -3 62 -28 140 -14 44
-37 127 -53 185 -15 58 -28 99 -28 92z"/>
<path d="M1482 1100 c0 -14 2 -19 5 -12 2 6 2 18 0 25 -3 6 -5 1 -5 -13z"/>
<path d="M1301 1097 c0 -10 -25 -51 -55 -90 -63 -85 -86 -128 -86 -159 1 -17
5 -12 15 17 8 22 19 41 24 43 19 6 113 172 108 190 -4 15 -5 15 -6 -1z"/>
<path d="M1811 1104 c-1 -15 30 -106 35 -101 2 2 -5 28 -15 58 -11 30 -20 49
-20 43z"/>
<path d="M1522 1080 c0 -14 2 -19 5 -12 2 6 2 18 0 25 -3 6 -5 1 -5 -13z"/>
<path d="M1078 1084 c-5 -4 -8 -20 -8 -35 0 -41 -34 -206 -80 -390 -39 -156
-62 -219 -78 -219 -13 0 -47 -113 -47 -156 0 -43 75 -283 88 -284 13 0 -2 57
-39 147 -50 120 -46 175 18 265 17 24 114 405 143 561 16 87 17 126 3 111z"/>
<path d="M1362 1070 c0 -14 2 -19 5 -12 2 6 2 18 0 25 -3 6 -5 1 -5 -13z"/>
<path d="M1423 1055 c0 -22 2 -30 4 -17 2 12 2 30 0 40 -3 9 -5 -1 -4 -23z"/>
<path d="M1782 1080 c0 -8 8 -37 18 -65 10 -27 18 -43 18 -35 0 8 -8 38 -18
65 -10 28 -18 43 -18 35z"/>
<path d="M1492 1050 c0 -14 2 -19 5 -12 2 6 2 18 0 25 -3 6 -5 1 -5 -13z"/>
<path d="M1020 1020 c-6 -21 -22 -97 -36 -167 -37 -188 -73 -313 -100 -354
-67 -99 -79 -200 -40 -333 14 -44 30 -100 36 -123 6 -24 15 -43 21 -43 12 0
12 0 -38 159 -43 139 -42 205 6 256 28 29 53 102 95 275 8 36 26 110 39 165
27 108 42 205 33 205 -3 0 -10 -18 -16 -40z"/>
<path d="M5326 1043 c30 -34 67 -98 80 -138 24 -74 43 -120 43 -105 2 61 -97
260 -129 260 -5 0 -3 -8 6 -17z"/>
<path d="M1320 1041 c0 -6 4 -13 10 -16 6 -3 7 1 4 9 -7 18 -14 21 -14 7z"/>
<path d="M1532 1030 c0 -14 2 -19 5 -12 2 6 2 18 0 25 -3 6 -5 1 -5 -13z"/>
<path d="M5214 1037 c3 -9 23 -41 45 -70 27 -35 51 -87 74 -157 50 -148 76
-218 77 -198 0 35 -91 295 -119 338 -37 58 -84 111 -77 87z"/>
<path d="M5293 1000 c47 -52 87 -149 130 -313 11 -42 22 -75 24 -73 7 6 -26
135 -59 236 -32 97 -54 136 -98 177 -45 40 -43 24 3 -27z"/>
<path d="M976 1031 c-4 -5 -10 -29 -15 -53 -77 -374 -83 -395 -119 -447 -14
-20 -22 -27 -17 -16 4 11 22 93 40 181 18 89 36 172 39 185 3 13 -1 8 -10 -11
-9 -19 -27 -86 -40 -148 -25 -120 -30 -136 -45 -127 -14 9 -11 44 11 130 11
43 18 80 16 82 -2 2 -14 -35 -27 -83 -13 -48 -30 -89 -37 -92 -17 -5 -15 23 8
97 26 86 18 91 -10 7 -22 -66 -40 -86 -40 -43 0 12 13 58 29 102 32 90 47 170
31 160 -5 -3 -10 -11 -10 -18 0 -25 -63 -213 -76 -227 -12 -12 -14 -11 -14 12
0 14 7 45 15 68 30 84 44 140 35 140 -4 0 -23 -43 -40 -95 -17 -52 -36 -98
-41 -101 -22 -13 -22 10 0 77 12 39 20 73 17 76 -5 6 -15 -15 -40 -86 -7 -19
-18 -37 -24 -39 -15 -5 -15 27 -2 65 l10 28 -19 -23 c-11 -12 -21 -27 -23 -33
-2 -6 -14 -5 -33 5 -28 15 -30 14 -42 -7 -7 -12 -12 -31 -12 -42 0 -14 5 -9
15 14 10 25 18 31 25 24 8 -8 8 -20 0 -44 -17 -48 -12 -70 6 -26 8 20 22 37
30 37 15 0 15 -11 -3 -55 -6 -16 -4 -16 13 4 31 38 47 18 23 -29 -11 -22 -20
-47 -19 -57 0 -10 6 -3 13 16 12 34 40 61 50 50 3 -3 -4 -25 -15 -49 -12 -25
-23 -70 -25 -104 l-3 -61 9 63 c8 59 40 122 61 122 14 0 11 -16 -13 -61 -13
-25 -23 -64 -24 -98 l-3 -56 8 56 c8 57 31 103 57 113 19 7 18 -8 -7 -55 -25
-51 -33 -146 -20 -259 10 -84 10 -84 5 35 -5 139 5 191 42 223 14 13 28 21 30
19 2 -1 -7 -23 -19 -48 -17 -34 -22 -63 -23 -129 l-2 -85 7 80 c10 97 14 107
57 140 l33 25 -26 -49 c-14 -28 -27 -72 -29 -98 -3 -44 -3 -45 5 -11 10 46 37
88 56 88 14 0 14 -4 0 -30 -9 -16 -21 -66 -27 -110 -11 -78 -10 -86 22 -215
19 -74 38 -135 42 -135 4 0 8 6 8 13 -1 16 -35 145 -49 180 -6 16 -11 64 -11
109 0 85 17 138 52 162 22 16 56 139 113 411 31 151 35 180 21 156z"/>
<path d="M1761 1030 c0 -8 8 -44 19 -80 10 -36 19 -56 19 -45 0 11 -8 47 -19
80 -10 33 -19 53 -19 45z"/>
<path d="M1461 1014 c0 -11 3 -14 6 -6 3 7 2 16 -1 19 -3 4 -6 -2 -5 -13z"/>
<path d="M5172 947 c22 -45 50 -104 63 -132 13 -27 34 -90 46 -140 30 -124 82
-290 87 -276 2 6 -6 44 -18 84 -12 39 -35 122 -50 184 -16 63 -48 153 -73 205
-24 51 -47 103 -51 116 -4 12 -15 26 -25 31 -13 7 -8 -11 21 -72z"/>
<path d="M5180 1023 c0 -5 19 -42 43 -83 23 -41 48 -88 54 -105 31 -79 114
-369 128 -445 9 -47 29 -134 46 -195 16 -60 34 -129 39 -152 6 -24 16 -43 21
-43 7 0 8 7 4 18 -16 41 -86 315 -106 412 -23 115 -107 397 -134 451 -23 44
-87 149 -91 149 -2 0 -4 -3 -4 -7z"/>
<path d="M5401 1008 c6 -13 20 -32 30 -43 10 -11 34 -79 53 -150 19 -72 60
-206 91 -300 51 -154 121 -382 147 -478 11 -39 34 -53 26 -14 -11 48 -80 270
-128 412 -29 83 -75 232 -104 331 -42 145 -60 190 -86 223 -37 46 -46 52 -29
19z"/>
<path d="M1502 995 c0 -16 2 -22 5 -12 2 9 2 23 0 30 -3 6 -5 -1 -5 -18z"/>
<path d="M876 983 c-11 -37 -16 -118 -7 -98 5 11 10 36 10 56 1 19 6 40 13 47
9 9 9 12 1 12 -7 0 -14 -8 -17 -17z"/>
<path d="M1357 925 c3 -44 7 -82 9 -84 7 -8 2 104 -6 134 -5 18 -6 -3 -3 -50z"/>
<path d="M1546 965 c3 -22 17 -76 30 -120 14 -44 28 -104 31 -132 3 -29 10
-53 15 -53 5 0 7 8 5 18 -3 9 -8 39 -12 65 -4 27 -13 67 -22 90 -8 23 -24 71
-34 107 -13 44 -17 52 -13 25z"/>
<path d="M917 977 c-4 -10 -7 -28 -6 -40 0 -21 1 -21 10 2 5 14 8 32 7 40 -3
13 -5 13 -11 -2z"/>
<path d="M1431 974 c0 -11 3 -14 6 -6 3 7 2 16 -1 19 -3 4 -6 -2 -5 -13z"/>
<path d="M1472 965 c0 -16 2 -22 5 -12 2 9 2 23 0 30 -3 6 -5 -1 -5 -18z"/>
<path d="M1851 974 c0 -11 3 -14 6 -6 3 7 2 16 -1 19 -3 4 -6 -2 -5 -13z"/>
<path d="M5482 960 c15 -20 35 -71 48 -122 12 -49 44 -152 71 -230 50 -142
108 -329 155 -503 23 -83 38 -115 48 -104 7 7 -109 394 -172 574 -33 94 -67
204 -77 245 -18 76 -47 133 -81 160 -11 9 -8 2 8 -20z"/>
<path d="M1891 964 c0 -11 3 -14 6 -6 3 7 2 16 -1 19 -3 4 -6 -2 -5 -13z"/>
<path d="M5512 974 c15 -26 38 -88 59 -159 12 -44 42 -120 65 -170 54 -117 84
-210 194 -607 12 -43 34 -53 24 -10 -3 15 -17 65 -31 112 -14 47 -29 103 -34
125 -24 100 -105 327 -141 393 -22 40 -38 75 -36 77 12 13 118 -167 141 -240
45 -142 105 -348 123 -422 10 -40 21 -73 26 -73 4 0 8 5 8 11 0 15 -48 203
-72 279 -81 263 -98 305 -153 379 -56 75 -80 138 -27 71 15 -19 45 -55 67 -80
44 -49 73 -121 140 -345 32 -104 75 -282 75 -307 0 -4 6 -8 14 -8 15 0 15 -2
-25 165 -22 92 -125 407 -144 446 -8 14 -33 47 -57 75 -76 86 -101 124 -83
124 9 0 25 -10 35 -22 147 -175 134 -153 198 -339 38 -108 83 -295 98 -401 5
-40 10 -48 28 -48 18 0 31 28 101 221 134 369 162 462 145 489 -10 15 -16 4
-24 -43 -8 -45 -77 -255 -134 -412 -55 -150 -52 -145 -69 -145 -9 0 -13 6 -10
14 3 7 14 42 25 77 24 76 88 255 101 284 33 71 83 263 70 271 -17 10 -29 -7
-29 -42 0 -20 -11 -63 -24 -97 -13 -34 -29 -79 -36 -99 -6 -21 -16 -40 -21
-43 -5 -4 -9 -14 -9 -24 0 -9 -6 -26 -14 -37 -13 -17 -14 -16 -6 16 5 19 20
67 33 105 27 76 55 161 61 185 2 8 7 27 11 41 8 34 -11 48 -30 23 -13 -17 -14
-16 -9 14 8 38 -1 40 -35 10 -22 -20 -23 -20 -8 -2 29 35 19 71 -12 42 -11
-11 -11 -9 -2 10 12 22 11 23 -34 20 -39 -3 -45 -6 -41 -22 4 -15 -2 -12 -26
10 l-30 29 22 -38 c26 -43 21 -62 -6 -22 -9 14 -25 30 -35 35 -12 7 -6 -7 17
-41 19 -28 34 -58 33 -68 0 -14 -2 -13 -12 3 -29 47 -71 86 -112 105 -62 29
-69 26 -13 -7 56 -32 112 -101 127 -156 15 -55 6 -57 -19 -3 -25 54 -90 124
-145 155 -33 19 -27 12 32 -42 75 -69 111 -128 133 -218 17 -68 6 -83 -13 -18
-9 31 -34 83 -55 115 -38 59 -160 180 -171 170 -3 -3 23 -34 58 -68 35 -34 78
-84 96 -112 43 -66 85 -186 84 -238 0 -41 -1 -41 -24 30 -14 40 -38 101 -53
135 -35 75 -151 212 -193 227 -16 5 -29 15 -29 22 0 6 6 9 13 6 9 -3 11 6 9
34 -5 47 -21 52 -23 7 l-2 -33 -4 30 c-5 32 -23 59 -23 35 0 -13 -2 -13 -10 0
-8 13 -11 13 -19 1 -7 -11 -10 -10 -14 5 -3 13 -5 9 -6 -11 l-2 -30 -11 25
c-10 24 -10 24 -18 5 -7 -19 -8 -18 -18 7 -6 14 -16 29 -23 34 -7 4 -10 3 -7
-2z m273 -239 c70 -83 77 -95 119 -205 33 -86 53 -170 60 -250 6 -64 6 -63
-27 50 -63 221 -112 326 -187 400 -3 3 -17 22 -33 42 -15 20 -36 40 -47 43
-11 3 -20 13 -20 21 0 30 67 -20 135 -101z m345 -11 c0 -8 -5 -12 -10 -9 -6 4
-8 11 -5 16 9 14 15 11 15 -7z m-29 -67 c-13 -13 -15 1 -4 30 7 17 8 17 11 -1
2 -10 -1 -23 -7 -29z m-30 -94 c-8 -15 -10 -15 -11 -2 0 17 10 32 18 25 2 -3
-1 -13 -7 -23z m-8 -193 c-3 -11 -9 -17 -15 -14 -5 3 -4 12 3 20 16 19 18 18
12 -6z m-50 -305 c-7 -21 -12 -19 -10 4 0 11 5 18 9 15 4 -3 5 -11 1 -19z"/>
<path d="M831 954 c0 -11 3 -14 6 -6 3 7 2 16 -1 19 -3 4 -6 -2 -5 -13z"/>
<path d="M1243 922 c-43 -65 -53 -87 -52 -114 0 -20 2 -19 11 7 6 17 23 48 39
70 24 35 46 85 37 85 -2 0 -17 -21 -35 -48z"/>
<path d="M1310 944 c0 -16 5 -36 11 -44 7 -11 8 -4 3 25 -8 50 -14 58 -14 19z"/>
<path d="M1401 955 c-1 -21 17 -260 23 -310 3 -16 7 -75 11 -130 4 -55 11
-107 16 -115 6 -9 7 3 4 35 -2 28 -7 97 -11 155 -6 105 -41 403 -43 365z"/>
<path d="M1512 940 c0 -14 2 -19 5 -12 2 6 2 18 0 25 -3 6 -5 1 -5 -13z"/>
<path d="M1821 944 c0 -11 3 -14 6 -6 3 7 2 16 -1 19 -3 4 -6 -2 -5 -13z"/>
<path d="M1442 920 c0 -19 3 -55 7 -80 11 -61 12 -4 1 65 -6 41 -7 44 -8 15z"/>
<path d="M1863 915 c0 -22 2 -30 4 -17 2 12 2 30 0 40 -3 9 -5 -1 -4 -23z"/>
<path d="M821 910 c0 -14 -4 -36 -7 -50 -5 -22 -4 -23 6 -7 6 9 9 32 7 50 -3
25 -4 26 -6 7z"/>
<path d="M1486 870 c3 -30 11 -74 19 -96 8 -23 17 -88 20 -145 3 -57 9 -106
12 -109 10 -8 -5 202 -17 240 -6 19 -18 64 -25 100 l-15 65 6 -55z"/>
<path d="M5700 906 c0 -8 5 -18 10 -21 6 -3 10 3 10 14 0 12 -4 21 -10 21 -5
0 -10 -6 -10 -14z"/>
<path d="M1521 895 c0 -11 11 -58 24 -104 17 -57 25 -110 25 -160 1 -55 3 -71
10 -59 14 24 -4 164 -34 263 -14 44 -25 71 -25 60z"/>
<path d="M5735 900 c3 -5 8 -10 11 -10 2 0 4 5 4 10 0 6 -5 10 -11 10 -5 0 -7
-4 -4 -10z"/>
<path d="M1262 868 c-24 -40 -52 -132 -51 -167 1 -18 4 -13 9 15 5 23 23 72
40 109 34 72 35 97 2 43z"/>
<path d="M1832 870 c0 -14 2 -19 5 -12 2 6 2 18 0 25 -3 6 -5 1 -5 -13z"/>
<path d="M1314 814 c3 -38 10 -157 16 -264 6 -107 13 -201 16 -209 3 -8 -1
-38 -7 -67 -12 -52 -7 -104 11 -104 5 0 4 13 -2 31 -8 24 -8 41 2 67 8 22 10
59 6 106 -3 39 -8 112 -11 161 -12 201 -23 336 -29 342 -3 4 -4 -25 -2 -63z"/>
<path d="M1802 835 c0 -16 2 -22 5 -12 2 9 2 23 0 30 -3 6 -5 -1 -5 -18z"/>
<path d="M325 830 c-6 -9 -10 -122 -10 -285 0 -239 -2 -281 -21 -365 -28 -124
-36 -180 -26 -180 4 0 21 57 37 128 25 109 30 155 35 327 4 177 6 193 15 140
6 -33 10 -127 10 -210 0 -119 -5 -173 -24 -263 -20 -98 -23 -137 -7 -121 9 8
54 233 60 294 3 33 6 85 6 115 2 50 3 52 11 25 16 -53 12 -166 -11 -298 -20
-116 -21 -151 -4 -134 3 3 19 68 35 144 27 129 28 133 23 63 -2 -41 -8 -105
-12 -142 -6 -50 -5 -68 4 -68 15 0 24 23 24 63 1 28 2 30 11 14 6 -11 9 -32 5
-47 l-5 -28 110 -1 c110 0 111 0 105 22 -3 12 -7 60 -8 107 -1 58 -3 69 -5 35
-2 -27 -8 -54 -12 -58 -8 -8 -29 139 -35 238 -1 28 -4 10 -5 -40 -3 -95 -18
-95 -22 0 -1 31 -4 40 -6 22 -7 -44 -23 -20 -24 36 -1 29 -3 44 -6 35 -10 -37
-23 -15 -24 40 -1 31 -4 45 -6 30 -2 -16 -9 -28 -14 -28 -5 0 -10 55 -11 123
-2 92 -3 103 -5 42 -2 -44 -6 -87 -9 -95 -12 -30 -21 24 -18 105 2 67 2 71 -4
24 -4 -31 -12 -62 -19 -70 -6 -8 -13 -23 -16 -34 -2 -11 -3 -4 -1 15 1 19 5
80 8 135 4 72 3 84 -3 45 -11 -78 -21 -104 -33 -92 -7 7 -7 36 1 92 13 84 9
126 -4 48 -8 -47 -21 -78 -34 -78 -8 0 -6 54 4 98 10 43 -13 22 -26 -25 l-14
-46 -5 59 c-4 44 -8 55 -15 44z m52 -172 c-3 -8 -6 -5 -6 6 -1 11 2 17 5 13 3
-3 4 -12 1 -19z m20 -155 c-3 -10 -5 -4 -5 12 0 17 2 24 5 18 2 -7 2 -21 0
-30z"/>
<path d="M1071 822 c0 -13 -10 -63 -21 -110 -12 -48 -28 -118 -37 -157 -9 -38
-35 -104 -57 -145 -35 -66 -40 -82 -40 -140 1 -54 8 -82 44 -165 23 -55 45
-102 48 -105 14 -14 -11 66 -41 131 -49 104 -53 169 -12 218 29 34 47 88 81
246 39 177 46 215 41 233 -3 12 -5 10 -6 -6z"/>
<path d="M467 823 c-4 -3 -7 -13 -7 -22 1 -13 3 -13 11 2 11 19 8 33 -4 20z"/>
<path d="M5180 813 c0 -5 9 -21 20 -38 10 -16 29 -72 40 -125 12 -52 37 -151
57 -220 19 -69 46 -168 59 -220 13 -52 33 -122 44 -155 17 -51 19 -54 14 -20
-3 22 -19 87 -35 145 -62 227 -88 328 -99 387 -20 113 -70 253 -91 253 -5 0
-9 -3 -9 -7z"/>
<path d="M1266 760 c-9 -30 -19 -77 -21 -105 l-4 -50 9 48 c5 27 16 64 25 83
9 19 15 45 13 57 -3 16 -9 7 -22 -33z"/>
<path d="M1830 762 c0 -23 4 -42 9 -42 6 0 7 17 4 38 -8 51 -13 53 -13 4z"/>
<path d="M1461 774 c0 -11 3 -14 6 -6 3 7 2 16 -1 19 -3 4 -6 -2 -5 -13z"/>
<path d="M264 743 c-4 -20 -4 -127 0 -236 4 -119 3 -204 -3 -211 -12 -15 -41
-188 -41 -249 0 -62 6 -58 14 8 8 73 25 156 36 185 11 29 19 540 8 540 -4 0
-10 -17 -14 -37z"/>
<path d="M1181 764 c0 -11 3 -14 6 -6 3 7 2 16 -1 19 -3 4 -6 -2 -5 -13z"/>
<path d="M2060 771 c0 -5 5 -13 10 -16 6 -3 10 -2 10 4 0 5 -4 13 -10 16 -5 3
-10 2 -10 -4z"/>
<path d="M5451 765 c0 -11 4 -29 9 -40 l9 -20 0 20 c0 11 -4 29 -9 40 l-9 20
0 -20z"/>
<path d="M2130 765 c1 -18 38 -60 46 -52 4 4 -4 20 -19 35 -15 14 -27 22 -27
17z"/>
<path d="M5151 764 c2 -5 15 -31 27 -58 13 -27 32 -99 43 -160 10 -61 37 -174
59 -251 21 -77 47 -171 56 -210 16 -65 34 -106 34 -76 0 13 -60 246 -90 351
-11 36 -28 116 -39 177 -22 120 -57 224 -80 231 -7 2 -12 1 -10 -4z"/>
<path d="M1478 625 c3 -71 9 -141 13 -155 10 -30 0 175 -11 240 -5 25 -6 -11
-2 -85z"/>
<path d="M1082 660 c-23 -128 -52 -234 -72 -261 -32 -45 -53 -125 -47 -178 6
-47 84 -221 99 -221 5 0 -12 40 -36 88 -24 49 -47 105 -51 125 -8 41 9 103 31
115 9 5 20 26 26 48 25 95 69 320 66 339 -2 11 -9 -14 -16 -55z"/>
<path d="M2100 722 c0 -16 68 -87 76 -79 4 4 -12 26 -35 49 -22 24 -41 37 -41
30z"/>
<path d="M60 688 c-7 -18 -24 -47 -37 -65 -23 -32 -32 -83 -13 -83 5 0 14 8
20 18 9 14 10 13 4 -8 -3 -14 -13 -37 -21 -52 -19 -39 -6 -35 35 10 24 25 31
29 21 12 -8 -14 -14 -29 -15 -35 0 -5 -8 -28 -17 -49 -14 -32 -17 -66 -15
-182 2 -104 0 -146 -10 -155 -16 -17 -16 -102 1 -97 19 7 27 109 21 248 -5
101 -3 132 9 163 16 36 30 46 41 28 3 -5 -1 -25 -9 -44 -18 -43 -20 -83 -10
-217 5 -67 4 -119 -3 -143 -8 -29 -8 -37 1 -34 9 3 11 52 9 183 l-3 179 27 30
26 30 -7 -35 c-4 -19 -8 -87 -10 -150 l-2 -115 6 100 c5 85 10 105 30 130 l24
30 -8 -35 c-3 -19 -8 -105 -10 -190 l-2 -155 6 135 c6 128 18 180 41 180 12 0
12 -12 1 -81 -14 -80 -23 -247 -13 -229 5 8 12 59 15 112 4 56 14 113 23 135
9 21 18 67 20 103 2 52 1 57 -5 27 -9 -40 -31 -73 -32 -47 -4 122 -9 183 -14
188 -4 4 -5 -19 -4 -50 4 -83 -9 -90 -25 -15 -4 16 -11 25 -17 21 -7 -4 -8 6
-4 29 4 20 2 43 -4 54 -10 15 -10 14 -5 -8 7 -34 -12 -47 -20 -14 -4 16 -11
23 -18 19 -12 -8 -2 47 11 56 9 7 32 83 26 88 -3 3 -7 -4 -11 -14 -17 -54 -49
-114 -61 -114 -18 0 -16 14 6 58 25 51 34 82 23 82 -5 0 -15 -15 -22 -32z"/>
<path d="M215 668 c8 -71 15 -73 15 -5 0 31 -4 57 -10 57 -6 0 -8 -21 -5 -52z"/>
<path d="M5120 712 c0 -4 6 -17 14 -28 19 -27 43 -113 55 -204 6 -41 32 -160
57 -265 53 -220 55 -224 61 -208 2 6 -10 71 -28 145 -47 199 -58 253 -78 370
-18 102 -52 198 -72 198 -5 0 -9 -3 -9 -8z"/>
<path d="M6 694 c-3 -9 -6 -23 -6 -32 0 -21 15 -5 25 26 7 25 -9 31 -19 6z"/>
<path d="M1693 670 c0 -25 2 -35 4 -22 2 12 2 32 0 45 -2 12 -4 2 -4 -23z"/>
<path d="M1760 660 c0 -29 3 -50 7 -46 7 7 5 87 -3 95 -2 2 -4 -20 -4 -49z"/>
<path d="M5471 690 c-1 -8 6 -37 15 -65 8 -27 17 -57 19 -65 8 -36 174 -552
179 -557 17 -17 11 14 -24 128 -61 199 -189 576 -189 559z"/>
<path d="M171 670 c1 -27 27 -104 28 -80 0 8 -6 35 -13 60 -10 31 -15 37 -15
20z"/>
<path d="M1801 674 c0 -11 3 -14 6 -6 3 7 2 16 -1 19 -3 4 -6 -2 -5 -13z"/>
<path d="M552 650 c0 -19 2 -27 5 -17 2 9 2 25 0 35 -3 9 -5 1 -5 -18z"/>
<path d="M6275 655 c-13 -60 -13 -65 -5 -65 18 0 32 57 20 79 -7 12 -10 9 -15
-14z"/>
<path d="M1646 648 c-3 -13 -5 -34 -5 -48 1 -15 5 -7 10 19 9 47 6 68 -5 29z"/>
<path d="M2090 661 c0 -5 11 -18 25 -29 14 -11 25 -24 25 -30 0 -13 29 -36 36
-29 7 7 -32 57 -63 81 -13 9 -23 13 -23 7z"/>
<path d="M131 650 c0 -8 9 -35 19 -60 10 -25 19 -38 19 -30 0 8 -9 35 -19 60
-10 25 -19 38 -19 30z"/>
<path d="M1116 608 c-13 -104 -39 -203 -68 -255 -31 -56 -45 -130 -34 -185 3
-19 25 -63 48 -99 49 -76 47 -74 53 -67 3 2 -15 36 -40 74 -61 95 -66 135 -26
217 17 35 40 104 51 153 20 96 36 214 28 214 -3 0 -8 -24 -12 -52z"/>
<path d="M1276 621 c-4 -24 -5 -46 -2 -48 7 -7 19 63 14 79 -3 7 -8 -7 -12
-31z"/>
<path d="M2061 625 c0 -15 107 -130 114 -123 4 3 -21 35 -54 70 -34 34 -61 59
-60 53z"/>
<path d="M6296 605 c-3 -8 -2 -23 1 -32 5 -12 2 -15 -9 -11 -29 12 -36 -7 -9
-26 14 -11 21 -14 15 -7 -9 10 -5 20 17 42 29 30 31 49 4 49 -7 0 -15 -7 -19
-15z"/>
<path d="M1150 566 c0 -85 -29 -191 -75 -277 -8 -14 -17 -50 -21 -80 -6 -53
-5 -57 41 -124 26 -39 52 -74 57 -80 19 -19 -14 37 -48 82 -28 36 -34 53 -34
92 0 31 6 57 18 72 29 38 63 169 69 268 3 50 3 91 -1 91 -3 0 -6 -20 -6 -44z"/>
<path d="M1680 567 c0 -26 4 -47 9 -47 8 0 3 79 -5 89 -2 2 -4 -17 -4 -42z"/>
<path d="M5451 590 c-1 -34 157 -571 173 -587 12 -13 16 4 7 33 -41 128 -144
451 -160 504 -11 36 -20 58 -20 50z"/>
<path d="M223 520 c0 -41 2 -58 4 -37 2 20 2 54 0 75 -2 20 -4 3 -4 -38z"/>
<path d="M6380 575 c0 -9 -6 -18 -14 -21 -9 -3 -12 -12 -9 -21 4 -11 2 -14 -5
-9 -8 5 -10 2 -6 -8 7 -19 -7 -21 -26 -3 -8 6 -6 1 5 -12 l20 -24 -25 8 c-21
7 -23 6 -13 -7 7 -8 10 -23 7 -35 -6 -20 -6 -20 -44 -2 -54 26 -64 24 -16 -4
22 -12 41 -28 44 -35 2 -8 -10 -5 -33 8 -48 27 -57 19 -10 -8 19 -12 35 -29
35 -38 0 -12 -9 -8 -39 15 -51 40 -67 40 -18 0 20 -17 37 -36 37 -43 0 -14 31
-46 45 -46 4 0 0 9 -10 20 -17 19 -17 19 26 2 24 -9 49 -23 56 -32 7 -8 13
-10 13 -4 0 16 -20 31 -52 39 -15 4 -29 13 -32 20 -3 10 0 12 12 8 15 -6 16
-5 2 12 -14 17 -13 17 10 12 14 -4 19 -4 13 -1 -19 9 -16 27 3 20 15 -6 15 -4
3 11 -12 15 -12 16 4 10 11 -4 16 -3 12 3 -4 6 1 17 10 26 12 12 15 33 14 85
-1 38 -6 69 -11 69 -4 0 -8 -7 -8 -15z"/>
<path d="M1612 560 c0 -14 2 -19 5 -12 2 6 2 18 0 25 -3 6 -5 1 -5 -13z"/>
<path d="M2052 569 c4 -12 48 -46 48 -37 0 2 -12 15 -26 27 -15 13 -24 17 -22
10z"/>
<path d="M5411 578 c-1 -11 54 -252 78 -338 45 -166 69 -234 81 -238 9 -3 11
1 6 13 -14 37 -96 314 -121 410 -34 131 -43 161 -44 153z"/>
<path d="M2190 560 c0 -5 5 -10 11 -10 5 0 7 5 4 10 -3 6 -8 10 -11 10 -2 0
-4 -4 -4 -10z"/>
<path d="M1272 540 c0 -14 2 -19 5 -12 2 6 2 18 0 25 -3 6 -5 1 -5 -13z"/>
<path d="M2014 536 c-3 -13 -4 -35 -1 -47 3 -20 5 -19 6 7 0 16 6 35 12 41 7
7 8 13 0 17 -6 4 -13 -4 -17 -18z"/>
<path d="M1981 514 c0 -11 3 -14 6 -6 3 7 2 16 -1 19 -3 4 -6 -2 -5 -13z"/>
<path d="M6251 527 c2 -1 13 -9 24 -17 19 -14 19 -14 6 3 -7 9 -18 17 -24 17
-6 0 -8 -1 -6 -3z"/>
<path d="M1572 495 c0 -16 2 -22 5 -12 2 9 2 23 0 30 -3 6 -5 -1 -5 -18z"/>
<path d="M6245 500 c3 -5 11 -10 16 -10 6 0 7 5 4 10 -3 6 -11 10 -16 10 -6 0
-7 -4 -4 -10z"/>
<path d="M1191 484 c0 -11 3 -14 6 -6 3 7 2 16 -1 19 -3 4 -6 -2 -5 -13z"/>
<path d="M1260 485 c0 -5 5 -17 10 -25 5 -8 10 -10 10 -5 0 6 -5 17 -10 25 -5
8 -10 11 -10 5z"/>
<path d="M6244 476 c11 -9 24 -16 30 -16 12 0 7 5 -24 19 -24 11 -24 11 -6 -3z"/>
<path d="M2127 443 c-11 -13 -17 -26 -15 -29 7 -7 40 34 37 44 -2 6 -12 -1
-22 -15z"/>
<path d="M1182 432 c-3 -38 -32 -131 -46 -144 -16 -17 -36 -97 -35 -140 l1
-33 9 40 c5 22 18 51 29 65 19 24 20 24 20 3 0 -12 -5 -44 -11 -71 -8 -34 -9
-57 -1 -78 10 -28 10 -28 9 11 -1 23 9 61 21 88 27 57 52 159 51 207 0 28 -3
23 -14 -26 -13 -61 -33 -104 -47 -104 -11 0 -10 15 8 82 8 33 13 74 11 92 -3
22 -4 24 -5 8z"/>
<path d="M1260 355 c-4 -47 -14 -89 -32 -125 -36 -75 -61 -210 -39 -210 5 0 9
13 9 29 -1 15 8 46 20 67 29 54 54 178 50 249 l-3 60 -5 -70z"/>
<path d="M5372 360 c0 -14 2 -19 5 -12 2 6 2 18 0 25 -3 6 -5 1 -5 -13z"/>
<path d="M6190 376 c0 -9 108 -116 117 -116 13 0 43 -34 43 -49 0 -15 -46 19
-95 68 -18 19 -38 31 -44 27 -6 -4 -16 -4 -23 0 -8 5 -6 9 6 14 15 5 16 8 4
18 -13 10 -21 -6 -52 -101 -21 -61 -49 -140 -62 -174 -13 -35 -19 -63 -14 -63
5 0 12 11 16 25 11 45 27 47 67 8 21 -20 41 -33 45 -29 4 4 -14 27 -39 51 -32
30 -43 47 -36 54 7 7 22 1 49 -20 28 -23 38 -38 38 -60 0 -24 4 -29 25 -29 16
0 25 6 25 15 0 20 17 19 29 -2 5 -10 13 -14 17 -10 4 4 2 13 -4 19 -7 7 -12
21 -12 33 1 18 2 18 24 -7 13 -15 26 -33 29 -40 2 -7 8 -10 12 -5 5 4 -1 21
-13 37 -34 46 -29 68 8 33 22 -20 29 -34 25 -50 -4 -16 -1 -23 10 -23 28 0 18
53 -15 82 -16 14 -30 34 -30 43 0 14 4 13 19 -6 11 -13 23 -21 27 -16 4 4 2
13 -4 19 -7 7 -12 18 -12 26 0 12 3 12 15 2 13 -11 15 -5 12 45 -3 46 -9 62
-27 77 -12 10 -27 18 -33 18 -6 0 -1 -7 11 -16 12 -8 22 -21 22 -29 0 -11 -10
-8 -36 10 -20 14 -41 25 -45 25 -5 0 -9 6 -9 13 0 8 -9 22 -20 33 -12 10 -28
27 -38 37 -15 15 -32 23 -32 13z m108 -155 c18 -12 32 -29 32 -37 0 -18 -6
-18 -29 4 -66 62 -93 81 -106 76 -9 -4 -15 0 -15 9 0 27 34 26 60 -2 14 -15
40 -37 58 -50z m-43 -14 c26 -25 45 -53 45 -65 0 -18 -8 -13 -46 28 -26 28
-55 50 -64 50 -10 0 -20 7 -24 15 -4 11 1 15 19 15 15 0 42 -16 70 -43z m-27
-34 c27 -23 42 -45 42 -60 0 -21 -4 -19 -47 22 -26 25 -53 45 -60 45 -7 0 -13
7 -13 15 0 26 34 16 78 -22z m-29 -39 c32 -28 41 -43 41 -68 l-1 -31 -14 26
c-8 14 -30 37 -49 50 -20 13 -36 32 -36 42 0 25 13 21 59 -19z"/>
<path d="M735 258 c6 -104 30 -235 46 -253 15 -15 10 26 -11 100 -13 46 -20
100 -20 157 0 50 -4 90 -11 93 -7 5 -8 -25 -4 -97z"/>
<path d="M2070 357 c0 -2 7 -22 16 -43 16 -38 22 -69 45 -232 6 -45 16 -82 20
-82 10 0 5 49 -14 145 -6 33 -10 64 -9 68 5 16 -31 127 -44 138 -8 6 -14 9
-14 6z"/>
<path d="M2250 329 c-34 -14 -35 -16 -16 -38 19 -21 28 -48 59 -193 12 -54 26
-98 30 -98 13 0 0 78 -29 178 -25 87 -27 129 -3 78 l14 -29 6 24 c6 24 6 24
18 -6 7 -16 25 -50 41 -75 16 -25 34 -73 40 -108 7 -34 17 -62 21 -62 18 0
-13 104 -52 180 -30 58 -36 80 -19 80 6 0 10 -6 10 -14 0 -7 9 -25 20 -39 23
-29 80 -164 80 -189 0 -10 5 -18 10 -18 6 0 10 4 10 10 0 16 -60 161 -76 184
-7 11 -14 30 -14 41 1 20 1 20 12 0 6 -11 19 -29 29 -40 15 -17 59 -113 83
-179 3 -10 9 -16 12 -13 8 7 -52 156 -76 189 -20 27 -27 68 -12 68 5 0 8 9 8
20 -1 10 4 19 9 20 6 0 10 -4 10 -9 0 -5 3 -13 8 -17 4 -4 7 -14 7 -22 0 -8
14 -32 32 -54 36 -46 88 -151 88 -179 0 -10 5 -19 10 -19 24 0 -40 152 -89
210 -30 37 -49 80 -33 80 5 0 15 -12 22 -27 8 -16 26 -41 41 -58 34 -37 99
-160 99 -186 0 -10 4 -19 9 -19 28 0 -46 155 -106 223 -18 20 -33 41 -33 47 0
5 -18 22 -41 37 -35 23 -52 27 -127 29 -48 1 -98 -2 -112 -7z"/>
<path d="M5383 300 c6 -47 59 -252 64 -246 5 5 -17 101 -47 211 -11 39 -19 54
-17 35z"/>
<path d="M2183 302 c9 -10 19 -34 23 -53 3 -19 12 -54 19 -79 7 -25 16 -71 20
-102 3 -32 11 -61 17 -64 24 -15 -41 293 -66 308 -21 14 -29 8 -13 -10z"/>
<path d="M4748 305 c-6 -6 10 -65 30 -115 5 -14 18 -62 28 -108 10 -45 22 -82
26 -82 13 0 9 36 -11 102 -11 35 -27 92 -37 128 -18 67 -26 84 -36 75z"/>
<path d="M1456 205 c8 -37 14 -45 14 -19 0 10 -5 26 -10 34 -8 11 -9 7 -4 -15z"/>
<path d="M2320 209 c0 -3 6 -25 14 -50 8 -24 20 -71 27 -104 6 -33 14 -54 17
-47 7 21 -18 133 -39 172 -10 19 -18 32 -19 29z"/>
<path d="M711 125 c-1 -64 9 -125 21 -125 6 0 7 14 2 33 -4 17 -10 57 -14 87
l-7 55 -2 -50z"/>
<path d="M2528 115 c9 -26 18 -42 20 -37 3 9 -26 82 -33 82 -2 0 4 -20 13 -45z"/>
<path d="M1469 129 c-1 -8 -1 -17 0 -21 0 -3 -6 -28 -14 -55 -8 -26 -15 -49
-15 -50 0 -2 6 -3 14 -3 10 0 16 19 21 65 4 36 5 69 1 72 -3 4 -7 0 -7 -8z"/>
<path d="M1503 65 c0 -38 2 -53 4 -32 2 20 2 52 0 70 -2 17 -4 1 -4 -38z"/>
<path d="M1582 105 c0 -16 2 -22 5 -12 2 9 2 23 0 30 -3 6 -5 -1 -5 -18z"/>
<path d="M4757 86 c-8 -21 14 -86 29 -86 10 0 9 11 -3 48 -19 57 -19 57 -26
38z"/>
<path d="M113 45 c0 -27 2 -38 4 -22 2 15 2 37 0 50 -2 12 -4 0 -4 -28z"/>
<path d="M2550 53 c0 -4 5 -15 10 -23 8 -13 10 -13 10 2 0 9 -4 20 -10 23 -5
3 -10 3 -10 -2z"/>
<path d="M1542 20 c0 -14 2 -19 5 -12 2 6 2 18 0 25 -3 6 -5 1 -5 -13z"/>
<path d="M5452 20 c0 -14 2 -19 5 -12 2 6 2 18 0 25 -3 6 -5 1 -5 -13z"/>
<path d="M6102 18 c3 -7 13 -15 24 -17 16 -3 17 -1 5 13 -16 19 -34 21 -29 4z"/>
</g>
</svg>
